<mxfile host="app.diagrams.net" agent="Mozilla/5.0 (Windows NT 10.0; Win64; x64) AppleWebKit/537.36 (KHTML, like Gecko) Chrome/129.0.0.0 Safari/537.36" version="24.8.2">
  <diagram name="DF" id="BleSmaJVXqo2yb7Co1eL">
    <mxGraphModel dx="3191" dy="2542" grid="0" gridSize="10" guides="0" tooltips="0" connect="0" arrows="0" fold="1" page="0" pageScale="1" pageWidth="827" pageHeight="1169" math="0" shadow="0">
      <root>
        <mxCell id="0" />
        <mxCell id="1" parent="0" />
        <mxCell id="MH2jeLUeA2oz_tTjhNLT-399" value="" style="endArrow=classic;html=1;rounded=0;exitX=0.382;exitY=0.999;exitDx=0;exitDy=0;exitPerimeter=0;entryX=0.513;entryY=-0.1;entryDx=0;entryDy=0;entryPerimeter=0;" edge="1" parent="1" source="MH2jeLUeA2oz_tTjhNLT-39" target="MH2jeLUeA2oz_tTjhNLT-191">
          <mxGeometry width="50" height="50" relative="1" as="geometry">
            <mxPoint x="2365" y="825" as="sourcePoint" />
            <mxPoint x="2415" y="775" as="targetPoint" />
            <Array as="points">
              <mxPoint x="1878" y="954" />
              <mxPoint x="2460" y="954" />
            </Array>
          </mxGeometry>
        </mxCell>
        <mxCell id="MH2jeLUeA2oz_tTjhNLT-378" value="" style="rounded=1;whiteSpace=wrap;html=1;arcSize=3;movable=1;resizable=1;rotatable=1;deletable=1;editable=1;locked=0;connectable=1;fillColor=#dae8fc;strokeColor=#6c8ebf;strokeWidth=3;" vertex="1" parent="1">
          <mxGeometry x="85" y="-149" width="364" height="46" as="geometry" />
        </mxCell>
        <mxCell id="MH2jeLUeA2oz_tTjhNLT-1" value="" style="rounded=1;whiteSpace=wrap;html=1;" vertex="1" parent="1">
          <mxGeometry x="1022" y="237" width="345" height="583" as="geometry" />
        </mxCell>
        <mxCell id="MH2jeLUeA2oz_tTjhNLT-3" value="" style="shape=cylinder3;whiteSpace=wrap;html=1;boundedLbl=1;backgroundOutline=1;size=15;" vertex="1" parent="1">
          <mxGeometry x="1074" y="499" width="243" height="306" as="geometry" />
        </mxCell>
        <mxCell id="kQWFD41fJFxlXKQhT5sF-2" value="" style="group" parent="1" vertex="1" connectable="0">
          <mxGeometry x="658" y="-197" width="151" height="36" as="geometry" />
        </mxCell>
        <mxCell id="cKbgiC5qh_IXnBO1eU4K-91" value="&lt;p style=&quot;margin: 0px 0px 0px 13px; text-indent: -13px; font-variant-numeric: normal; font-variant-east-asian: normal; font-variant-alternates: normal; font-kerning: auto; font-optical-sizing: auto; font-feature-settings: normal; font-variation-settings: normal; font-variant-position: normal; font-stretch: normal; font-size: 14px; line-height: normal; color: rgb(14, 14, 14); text-align: start;&quot; class=&quot;p1&quot;&gt;&lt;br&gt;&lt;/p&gt;" style="rounded=1;whiteSpace=wrap;html=1;fillColor=#FF77BF;strokeColor=none;arcSize=33;" parent="kQWFD41fJFxlXKQhT5sF-2" vertex="1">
          <mxGeometry y="5" width="151" height="31" as="geometry" />
        </mxCell>
        <mxCell id="cKbgiC5qh_IXnBO1eU4K-92" value="&lt;font style=&quot;font-size: 18px;&quot;&gt;&lt;i&gt;Django/Python&lt;/i&gt;&lt;/font&gt;" style="text;html=1;align=center;verticalAlign=middle;whiteSpace=wrap;rounded=1;shadow=0;fontSize=23;fontStyle=1" parent="kQWFD41fJFxlXKQhT5sF-2" vertex="1">
          <mxGeometry x="30" width="89" height="36" as="geometry" />
        </mxCell>
        <mxCell id="kQWFD41fJFxlXKQhT5sF-1" value="" style="group" parent="1" vertex="1" connectable="0">
          <mxGeometry x="1856" y="-257" width="155" height="49" as="geometry" />
        </mxCell>
        <mxCell id="cKbgiC5qh_IXnBO1eU4K-166" value="&lt;p style=&quot;margin: 0px 0px 0px 13px; text-indent: -13px; font-variant-numeric: normal; font-variant-east-asian: normal; font-variant-alternates: normal; font-kerning: auto; font-optical-sizing: auto; font-feature-settings: normal; font-variation-settings: normal; font-variant-position: normal; font-stretch: normal; font-size: 14px; line-height: normal; color: rgb(14, 14, 14); text-align: start;&quot; class=&quot;p1&quot;&gt;&lt;br&gt;&lt;/p&gt;" style="rounded=1;whiteSpace=wrap;html=1;fillColor=#FF77BF;strokeColor=none;arcSize=33;" parent="kQWFD41fJFxlXKQhT5sF-1" vertex="1">
          <mxGeometry y="13" width="155" height="34" as="geometry" />
        </mxCell>
        <mxCell id="cKbgiC5qh_IXnBO1eU4K-165" value="&lt;font style=&quot;font-size: 18px;&quot;&gt;&lt;i&gt;React/HTML/CSS&lt;/i&gt;&lt;/font&gt;" style="text;html=1;align=center;verticalAlign=middle;whiteSpace=wrap;rounded=1;shadow=0;fontSize=23;fontStyle=1" parent="kQWFD41fJFxlXKQhT5sF-1" vertex="1">
          <mxGeometry x="29" width="89" height="49" as="geometry" />
        </mxCell>
        <mxCell id="ISwjRsLXD4yoOcMXPSiY-8" value="" style="group" parent="1" vertex="1" connectable="0">
          <mxGeometry x="3004" y="212" width="535" height="220" as="geometry" />
        </mxCell>
        <mxCell id="Tz6aEU4ManMyac2rpAqn-102" value="" style="rounded=1;whiteSpace=wrap;html=1;arcSize=5;fillColor=#fff2cc;strokeColor=#d6b656;" parent="ISwjRsLXD4yoOcMXPSiY-8" vertex="1">
          <mxGeometry x="17" width="518" height="220" as="geometry" />
        </mxCell>
        <mxCell id="Tz6aEU4ManMyac2rpAqn-103" value="TurboPay" style="text;html=1;align=center;verticalAlign=middle;whiteSpace=wrap;rounded=1;shadow=0;fontSize=23;fontStyle=1" parent="ISwjRsLXD4yoOcMXPSiY-8" vertex="1">
          <mxGeometry width="177" height="49" as="geometry" />
        </mxCell>
        <mxCell id="ISwjRsLXD4yoOcMXPSiY-9" value="" style="group" parent="1" vertex="1" connectable="0">
          <mxGeometry x="3054" y="272" width="518" height="224" as="geometry" />
        </mxCell>
        <mxCell id="Tz6aEU4ManMyac2rpAqn-100" value="" style="rounded=1;whiteSpace=wrap;html=1;arcSize=5;fillColor=#fff2cc;strokeColor=#d6b656;" parent="ISwjRsLXD4yoOcMXPSiY-9" vertex="1">
          <mxGeometry width="518" height="224" as="geometry" />
        </mxCell>
        <mxCell id="Tz6aEU4ManMyac2rpAqn-101" value="FastMoney" style="text;html=1;align=center;verticalAlign=middle;whiteSpace=wrap;rounded=1;shadow=0;fontSize=23;fontStyle=1" parent="ISwjRsLXD4yoOcMXPSiY-9" vertex="1">
          <mxGeometry x="2" width="141" height="49" as="geometry" />
        </mxCell>
        <mxCell id="ISwjRsLXD4yoOcMXPSiY-10" value="" style="group" parent="1" vertex="1" connectable="0">
          <mxGeometry x="3084" y="332" width="514" height="244" as="geometry" />
        </mxCell>
        <mxCell id="Tz6aEU4ManMyac2rpAqn-104" value="" style="rounded=1;whiteSpace=wrap;html=1;arcSize=5;fillColor=#fff2cc;strokeColor=#d6b656;" parent="ISwjRsLXD4yoOcMXPSiY-10" vertex="1">
          <mxGeometry width="514" height="244" as="geometry" />
        </mxCell>
        <mxCell id="Tz6aEU4ManMyac2rpAqn-105" value="Яндекс.Pay" style="text;html=1;align=center;verticalAlign=middle;whiteSpace=wrap;rounded=1;shadow=0;fontSize=23;fontStyle=1" parent="ISwjRsLXD4yoOcMXPSiY-10" vertex="1">
          <mxGeometry width="150" height="49" as="geometry" />
        </mxCell>
        <mxCell id="aNh6FEuhw9lsT8rE3H5J-120" value="" style="rounded=1;whiteSpace=wrap;html=1;arcSize=3;movable=1;resizable=1;rotatable=1;deletable=1;editable=1;locked=0;connectable=1;fillColor=#d5e8d4;strokeColor=#82b366;strokeWidth=3;" parent="1" vertex="1">
          <mxGeometry x="635" y="-166" width="638" height="46" as="geometry" />
        </mxCell>
        <mxCell id="aNh6FEuhw9lsT8rE3H5J-121" value="Портал администратора" style="text;html=1;align=center;verticalAlign=middle;whiteSpace=wrap;rounded=1;shadow=0;fontSize=23;fontStyle=1" parent="1" vertex="1">
          <mxGeometry x="715" y="-171" width="549" height="49" as="geometry" />
        </mxCell>
        <mxCell id="cKbgiC5qh_IXnBO1eU4K-69" value="&lt;p style=&quot;margin: 0px 0px 0px 13px; text-indent: -13px; font-variant-numeric: normal; font-variant-east-asian: normal; font-variant-alternates: normal; font-kerning: auto; font-optical-sizing: auto; font-feature-settings: normal; font-variation-settings: normal; font-variant-position: normal; font-stretch: normal; font-size: 14px; line-height: normal; color: rgb(14, 14, 14); text-align: start;&quot; class=&quot;p1&quot;&gt;&lt;font face=&quot;Times New Roman&quot;&gt;Пользователь.Статус&lt;/font&gt;&lt;/p&gt;" style="rounded=1;whiteSpace=wrap;html=1;fillColor=#b1ddf0;strokeColor=#10739e;" parent="1" vertex="1">
          <mxGeometry x="1099" y="742" width="136" height="21" as="geometry" />
        </mxCell>
        <mxCell id="cKbgiC5qh_IXnBO1eU4K-71" value="&lt;p style=&quot;margin: 0px 0px 0px 13px; text-indent: -13px; font-variant-numeric: normal; font-variant-east-asian: normal; font-variant-alternates: normal; font-kerning: auto; font-optical-sizing: auto; font-feature-settings: normal; font-variation-settings: normal; font-variant-position: normal; font-stretch: normal; font-size: 14px; line-height: normal; color: rgb(14, 14, 14); text-align: start;&quot; class=&quot;p1&quot;&gt;&lt;font face=&quot;Times New Roman&quot;&gt;Пользователь.Номер телефона&lt;/font&gt;&lt;/p&gt;" style="rounded=1;whiteSpace=wrap;html=1;fillColor=#b1ddf0;strokeColor=#10739e;" parent="1" vertex="1">
          <mxGeometry x="1098" y="769" width="190" height="21" as="geometry" />
        </mxCell>
        <mxCell id="cKbgiC5qh_IXnBO1eU4K-95" value="Администратор" style="shape=umlActor;verticalLabelPosition=bottom;verticalAlign=top;html=1;outlineConnect=0;rounded=1;" parent="1" vertex="1">
          <mxGeometry x="795" y="-521" width="65" height="141" as="geometry" />
        </mxCell>
        <mxCell id="cKbgiC5qh_IXnBO1eU4K-96" value="" style="endArrow=classic;html=1;rounded=1;dashed=1;entryX=0.347;entryY=-0.069;entryDx=0;entryDy=0;entryPerimeter=0;" parent="1" source="cKbgiC5qh_IXnBO1eU4K-95" target="aNh6FEuhw9lsT8rE3H5J-121" edge="1">
          <mxGeometry width="50" height="50" relative="1" as="geometry">
            <mxPoint x="504" y="-58" as="sourcePoint" />
            <mxPoint x="500" y="377" as="targetPoint" />
            <Array as="points" />
          </mxGeometry>
        </mxCell>
        <mxCell id="cKbgiC5qh_IXnBO1eU4K-103" value="" style="endArrow=classic;html=1;rounded=1;curved=0;entryX=1.003;entryY=0.148;entryDx=0;entryDy=0;entryPerimeter=0;" parent="1" target="MH2jeLUeA2oz_tTjhNLT-189" edge="1">
          <mxGeometry width="50" height="50" relative="1" as="geometry">
            <mxPoint x="3354" y="582" as="sourcePoint" />
            <mxPoint x="3324" y="777" as="targetPoint" />
            <Array as="points">
              <mxPoint x="3354" y="1072" />
            </Array>
          </mxGeometry>
        </mxCell>
        <mxCell id="cKbgiC5qh_IXnBO1eU4K-104" value="&lt;p style=&quot;margin: 0px 0px 0px 21px; text-indent: -21px; font-variant-numeric: normal; font-variant-east-asian: normal; font-variant-alternates: normal; font-kerning: auto; font-optical-sizing: auto; font-feature-settings: normal; font-variation-settings: normal; font-variant-position: normal; font-stretch: normal; line-height: normal; color: rgb(14, 14, 14); text-align: start; text-wrap: wrap;&quot; class=&quot;p1&quot;&gt;&lt;font style=&quot;font-size: 12px;&quot; face=&quot;Helvetica&quot;&gt;Подтверждение платежа&lt;/font&gt;&lt;/p&gt;" style="edgeLabel;html=1;align=center;verticalAlign=middle;resizable=0;points=[];rounded=1;" parent="cKbgiC5qh_IXnBO1eU4K-103" vertex="1" connectable="0">
          <mxGeometry x="0.1936" y="1" relative="1" as="geometry">
            <mxPoint x="190" y="23" as="offset" />
          </mxGeometry>
        </mxCell>
        <mxCell id="cKbgiC5qh_IXnBO1eU4K-105" value="" style="endArrow=classic;html=1;rounded=1;exitX=0.999;exitY=0.173;exitDx=0;exitDy=0;exitPerimeter=0;curved=0;entryX=0.68;entryY=1.001;entryDx=0;entryDy=0;entryPerimeter=0;" parent="1" source="MH2jeLUeA2oz_tTjhNLT-189" target="Tz6aEU4ManMyac2rpAqn-104" edge="1">
          <mxGeometry width="50" height="50" relative="1" as="geometry">
            <mxPoint x="3134" y="1278" as="sourcePoint" />
            <mxPoint x="3434" y="772" as="targetPoint" />
            <Array as="points">
              <mxPoint x="3434" y="1152" />
            </Array>
          </mxGeometry>
        </mxCell>
        <mxCell id="cKbgiC5qh_IXnBO1eU4K-106" value="&lt;font style=&quot;font-size: 12px;&quot;&gt;Предоставить статус платежа&lt;/font&gt;" style="edgeLabel;html=1;align=center;verticalAlign=middle;resizable=0;points=[];rounded=1;" parent="cKbgiC5qh_IXnBO1eU4K-105" vertex="1" connectable="0">
          <mxGeometry x="0.1936" y="1" relative="1" as="geometry">
            <mxPoint x="-304" y="-60" as="offset" />
          </mxGeometry>
        </mxCell>
        <mxCell id="cKbgiC5qh_IXnBO1eU4K-107" value="" style="endArrow=classic;html=1;rounded=1;curved=0;entryX=0.995;entryY=0.378;entryDx=0;entryDy=0;entryPerimeter=0;" parent="1" target="MH2jeLUeA2oz_tTjhNLT-189" edge="1">
          <mxGeometry width="50" height="50" relative="1" as="geometry">
            <mxPoint x="3594" y="582" as="sourcePoint" />
            <mxPoint x="2974" y="1312" as="targetPoint" />
            <Array as="points">
              <mxPoint x="3594" y="1312" />
            </Array>
          </mxGeometry>
        </mxCell>
        <mxCell id="cKbgiC5qh_IXnBO1eU4K-108" value="&lt;font style=&quot;font-size: 12px;&quot;&gt;Подтверждение отмены&amp;nbsp;&lt;/font&gt;&lt;div&gt;&lt;font style=&quot;font-size: 12px;&quot;&gt;платежа&lt;/font&gt;&lt;/div&gt;" style="edgeLabel;html=1;align=center;verticalAlign=middle;resizable=0;points=[];rounded=1;" parent="cKbgiC5qh_IXnBO1eU4K-107" vertex="1" connectable="0">
          <mxGeometry x="0.1936" y="1" relative="1" as="geometry">
            <mxPoint x="-75" y="-27" as="offset" />
          </mxGeometry>
        </mxCell>
        <mxCell id="cKbgiC5qh_IXnBO1eU4K-109" value="" style="endArrow=classic;html=1;rounded=1;exitX=0.991;exitY=0.09;exitDx=0;exitDy=0;exitPerimeter=0;curved=0;entryX=0.214;entryY=1.007;entryDx=0;entryDy=0;entryPerimeter=0;" parent="1" source="MH2jeLUeA2oz_tTjhNLT-189" target="Tz6aEU4ManMyac2rpAqn-104" edge="1">
          <mxGeometry width="50" height="50" relative="1" as="geometry">
            <mxPoint x="2844" y="998" as="sourcePoint" />
            <mxPoint x="3189" y="613" as="targetPoint" />
            <Array as="points">
              <mxPoint x="3194" y="992" />
            </Array>
          </mxGeometry>
        </mxCell>
        <mxCell id="cKbgiC5qh_IXnBO1eU4K-110" value="&lt;span style=&quot;text-wrap: wrap;&quot;&gt;&lt;font style=&quot;font-size: 12px;&quot;&gt;Инициировать платёж&lt;/font&gt;&lt;/span&gt;" style="edgeLabel;html=1;align=center;verticalAlign=middle;resizable=0;points=[];rounded=1;" parent="cKbgiC5qh_IXnBO1eU4K-109" vertex="1" connectable="0">
          <mxGeometry x="0.1936" y="1" relative="1" as="geometry">
            <mxPoint x="-122" y="-50" as="offset" />
          </mxGeometry>
        </mxCell>
        <mxCell id="cKbgiC5qh_IXnBO1eU4K-114" value="&lt;font style=&quot;font-size: 12px;&quot;&gt;[Транзакция.ID]&lt;/font&gt;" style="text;html=1;align=center;verticalAlign=middle;whiteSpace=wrap;rounded=1;fontSize=13;labelBackgroundColor=none;fontColor=#B8B8B8;" parent="1" vertex="1">
          <mxGeometry x="3010" y="1070.5" width="100" height="30" as="geometry" />
        </mxCell>
        <mxCell id="cKbgiC5qh_IXnBO1eU4K-120" value="&lt;font style=&quot;font-size: 12px;&quot;&gt;[Транзакция.Статус]&lt;/font&gt;" style="text;html=1;align=center;verticalAlign=middle;whiteSpace=wrap;rounded=1;fontSize=13;labelBackgroundColor=none;fontColor=#B8B8B8;" parent="1" vertex="1">
          <mxGeometry x="3090" y="1070.5" width="160" height="30" as="geometry" />
        </mxCell>
        <mxCell id="cKbgiC5qh_IXnBO1eU4K-121" value="&lt;font style=&quot;font-size: 12px;&quot;&gt;[Пользователь.ID]&lt;/font&gt;" style="text;html=1;align=center;verticalAlign=middle;whiteSpace=wrap;rounded=1;fontSize=13;labelBackgroundColor=none;fontColor=#007575;" parent="1" vertex="1">
          <mxGeometry x="2994" y="942" width="160" height="30" as="geometry" />
        </mxCell>
        <mxCell id="cKbgiC5qh_IXnBO1eU4K-122" value="&lt;font style=&quot;font-size: 12px;&quot;&gt;[Заказ.ID]&lt;/font&gt;" style="text;html=1;align=center;verticalAlign=middle;whiteSpace=wrap;rounded=1;fontSize=13;labelBackgroundColor=none;fontColor=#007575;" parent="1" vertex="1">
          <mxGeometry x="2954" y="962" width="160" height="30" as="geometry" />
        </mxCell>
        <mxCell id="cKbgiC5qh_IXnBO1eU4K-123" value="&lt;font style=&quot;font-size: 12px;&quot;&gt;[Заказ.Сумма]&lt;/font&gt;" style="text;html=1;align=center;verticalAlign=middle;whiteSpace=wrap;rounded=1;fontSize=13;labelBackgroundColor=none;fontColor=#007575;" parent="1" vertex="1">
          <mxGeometry x="3024" y="962" width="160" height="30" as="geometry" />
        </mxCell>
        <mxCell id="cKbgiC5qh_IXnBO1eU4K-124" value="&lt;font style=&quot;font-size: 12px;&quot;&gt;[Транзакция.ID]&lt;/font&gt;" style="text;html=1;align=center;verticalAlign=middle;whiteSpace=wrap;rounded=1;fontSize=13;labelBackgroundColor=none;fontColor=#B8B8B8;" parent="1" vertex="1">
          <mxGeometry x="3266" y="1150" width="100" height="30" as="geometry" />
        </mxCell>
        <mxCell id="cKbgiC5qh_IXnBO1eU4K-125" value="" style="endArrow=classic;html=1;rounded=1;exitX=1.003;exitY=0.238;exitDx=0;exitDy=0;exitPerimeter=0;curved=0;entryX=0.837;entryY=1.005;entryDx=0;entryDy=0;entryPerimeter=0;" parent="1" source="MH2jeLUeA2oz_tTjhNLT-189" target="Tz6aEU4ManMyac2rpAqn-104" edge="1">
          <mxGeometry width="50" height="50" relative="1" as="geometry">
            <mxPoint x="2974" y="1236" as="sourcePoint" />
            <mxPoint x="3438" y="852" as="targetPoint" />
            <Array as="points">
              <mxPoint x="3514" y="1232" />
            </Array>
          </mxGeometry>
        </mxCell>
        <mxCell id="cKbgiC5qh_IXnBO1eU4K-169" value="&lt;font style=&quot;font-size: 12px;&quot;&gt;Запросить статус платежа&lt;/font&gt;" style="edgeLabel;html=1;align=center;verticalAlign=middle;resizable=0;points=[];rounded=1;" parent="cKbgiC5qh_IXnBO1eU4K-125" vertex="1" connectable="0">
          <mxGeometry x="-0.4407" y="-1" relative="1" as="geometry">
            <mxPoint x="11" y="-39" as="offset" />
          </mxGeometry>
        </mxCell>
        <mxCell id="cKbgiC5qh_IXnBO1eU4K-127" value="&lt;font style=&quot;font-size: 12px;&quot;&gt;[Транзакция.ID]&lt;/font&gt;" style="text;html=1;align=center;verticalAlign=middle;whiteSpace=wrap;rounded=1;fontSize=13;labelBackgroundColor=none;fontColor=#B8B8B8;" parent="1" vertex="1">
          <mxGeometry x="3004" y="1202" width="100" height="30" as="geometry" />
        </mxCell>
        <mxCell id="cKbgiC5qh_IXnBO1eU4K-128" value="&lt;font style=&quot;font-size: 12px;&quot;&gt;[Транзакция.Статус]&lt;/font&gt;" style="text;html=1;align=center;verticalAlign=middle;whiteSpace=wrap;rounded=1;fontSize=13;labelBackgroundColor=none;fontColor=#B8B8B8;" parent="1" vertex="1">
          <mxGeometry x="3161" y="1293" width="160" height="30" as="geometry" />
        </mxCell>
        <mxCell id="aNh6FEuhw9lsT8rE3H5J-66" value="1" style="ellipse;whiteSpace=wrap;html=1;aspect=fixed;rounded=1;fillColor=#FF77BF;" parent="1" vertex="1">
          <mxGeometry x="2954" y="982" width="23" height="23" as="geometry" />
        </mxCell>
        <mxCell id="cKbgiC5qh_IXnBO1eU4K-138" value="2" style="ellipse;whiteSpace=wrap;html=1;aspect=fixed;rounded=1;fillColor=#FF77BF;" parent="1" vertex="1">
          <mxGeometry x="3344" y="562" width="23" height="23" as="geometry" />
        </mxCell>
        <mxCell id="cKbgiC5qh_IXnBO1eU4K-139" value="3" style="ellipse;whiteSpace=wrap;html=1;aspect=fixed;rounded=1;fillColor=#ff77bf;" parent="1" vertex="1">
          <mxGeometry x="3371" y="1126" width="23" height="23" as="geometry" />
        </mxCell>
        <mxCell id="cKbgiC5qh_IXnBO1eU4K-140" value="4" style="ellipse;whiteSpace=wrap;html=1;aspect=fixed;rounded=1;fillColor=#FF77BF;" parent="1" vertex="1">
          <mxGeometry x="2977" y="1206" width="23" height="23" as="geometry" />
        </mxCell>
        <mxCell id="cKbgiC5qh_IXnBO1eU4K-143" value="5" style="ellipse;whiteSpace=wrap;html=1;aspect=fixed;rounded=1;fillColor=#FF77BF;" parent="1" vertex="1">
          <mxGeometry x="3584" y="562" width="23" height="23" as="geometry" />
        </mxCell>
        <mxCell id="cKbgiC5qh_IXnBO1eU4K-146" value="" style="strokeWidth=2;html=1;shape=mxgraph.flowchart.database;whiteSpace=wrap;rounded=1;movable=1;resizable=1;rotatable=1;deletable=1;editable=1;locked=0;connectable=1;" parent="1" vertex="1">
          <mxGeometry x="3364" y="392" width="220" height="171" as="geometry" />
        </mxCell>
        <mxCell id="cKbgiC5qh_IXnBO1eU4K-152" value="&lt;p style=&quot;margin: 0px 0px 0px 13px; text-indent: -13px; font-variant-numeric: normal; font-variant-east-asian: normal; font-variant-alternates: normal; font-kerning: auto; font-optical-sizing: auto; font-feature-settings: normal; font-variation-settings: normal; font-variant-position: normal; font-stretch: normal; font-size: 14px; line-height: normal; text-align: start;&quot; class=&quot;p1&quot;&gt;&lt;span style=&quot;font-size: 12px; text-align: center; text-indent: 0px;&quot;&gt;[Транзакция.Статус]&lt;/span&gt;&lt;br&gt;&lt;/p&gt;" style="rounded=1;whiteSpace=wrap;html=1;fillColor=#B8B8B8;strokeColor=#FFD966;" parent="1" vertex="1">
          <mxGeometry x="3414" y="482" width="119" height="21" as="geometry" />
        </mxCell>
        <mxCell id="cKbgiC5qh_IXnBO1eU4K-153" value="&lt;p style=&quot;margin: 0px 0px 0px 13px; text-indent: -13px; font-variant-numeric: normal; font-variant-east-asian: normal; font-variant-alternates: normal; font-kerning: auto; font-optical-sizing: auto; font-feature-settings: normal; font-variation-settings: normal; font-variant-position: normal; font-stretch: normal; font-size: 14px; line-height: normal; text-align: start;&quot; class=&quot;p1&quot;&gt;&lt;span style=&quot;font-size: 12px; text-align: center; text-indent: 0px;&quot;&gt;[Транзакция.ID]&lt;/span&gt;&lt;br&gt;&lt;/p&gt;" style="rounded=1;whiteSpace=wrap;html=1;fillColor=#B8B8B8;strokeColor=#FFD966;" parent="1" vertex="1">
          <mxGeometry x="3414" y="512" width="119" height="21" as="geometry" />
        </mxCell>
        <mxCell id="cKbgiC5qh_IXnBO1eU4K-154" value="Редактировать аукцион&lt;div&gt;Валидировать заявку&lt;/div&gt;" style="text;html=1;align=center;verticalAlign=middle;whiteSpace=wrap;rounded=1;fontSize=13;" parent="1" vertex="1">
          <mxGeometry x="743" y="-357" width="243" height="30" as="geometry" />
        </mxCell>
        <mxCell id="cKbgiC5qh_IXnBO1eU4K-157" value="Специалист поддержки" style="shape=umlActor;verticalLabelPosition=bottom;verticalAlign=top;html=1;outlineConnect=0;rounded=1;" parent="1" vertex="1">
          <mxGeometry x="200" y="-517" width="65" height="141" as="geometry" />
        </mxCell>
        <mxCell id="cKbgiC5qh_IXnBO1eU4K-160" value="" style="endArrow=classic;html=1;rounded=1;dashed=1;" parent="1" edge="1" source="cKbgiC5qh_IXnBO1eU4K-157">
          <mxGeometry width="50" height="50" relative="1" as="geometry">
            <mxPoint x="244" y="12" as="sourcePoint" />
            <mxPoint x="266" y="-196" as="targetPoint" />
            <Array as="points" />
          </mxGeometry>
        </mxCell>
        <mxCell id="cKbgiC5qh_IXnBO1eU4K-162" value="&lt;div&gt;Изменить статус заявки&lt;/div&gt;&lt;div&gt;на поддержку&lt;/div&gt;" style="text;html=1;align=center;verticalAlign=middle;whiteSpace=wrap;rounded=1;fontSize=13;arcSize=50;" parent="1" vertex="1">
          <mxGeometry x="298" y="-345" width="243" height="30" as="geometry" />
        </mxCell>
        <mxCell id="cKbgiC5qh_IXnBO1eU4K-163" value="" style="rounded=1;whiteSpace=wrap;html=1;arcSize=3;fillColor=#ffe6cc;strokeColor=#d79b00;strokeWidth=3;align=center;verticalAlign=middle;fontFamily=Helvetica;fontSize=12;resizable=1;" parent="1" vertex="1">
          <mxGeometry x="1835" y="-214" width="375" height="56" as="geometry" />
        </mxCell>
        <mxCell id="cKbgiC5qh_IXnBO1eU4K-164" value="Портал электронной площадки" style="text;html=1;align=center;verticalAlign=middle;whiteSpace=wrap;rounded=1;shadow=0;fontSize=23;fontStyle=1" parent="1" vertex="1">
          <mxGeometry x="1837" y="-210" width="364" height="49" as="geometry" />
        </mxCell>
        <mxCell id="Tz6aEU4ManMyac2rpAqn-4" value="Клиент" style="shape=umlActor;verticalLabelPosition=bottom;verticalAlign=top;html=1;outlineConnect=0;rounded=1;" parent="1" vertex="1">
          <mxGeometry x="1806" y="-527" width="65" height="141" as="geometry" />
        </mxCell>
        <mxCell id="Tz6aEU4ManMyac2rpAqn-10" value="" style="endArrow=classic;html=1;rounded=1;dashed=1;entryX=0.727;entryY=0.031;entryDx=0;entryDy=0;entryPerimeter=0;fontSize=12;" parent="1" source="Tz6aEU4ManMyac2rpAqn-4" edge="1">
          <mxGeometry width="50" height="50" relative="1" as="geometry">
            <mxPoint x="1838" y="-480" as="sourcePoint" />
            <mxPoint x="1839.2600000000002" y="-216.48099999999977" as="targetPoint" />
            <Array as="points" />
          </mxGeometry>
        </mxCell>
        <mxCell id="2AGFnVR7y4NEZtL3Teil-1" value="" style="group" parent="1" vertex="1" connectable="0">
          <mxGeometry x="1031" y="304" width="309" height="39" as="geometry" />
        </mxCell>
        <mxCell id="BZBJQn5B5M7l6MrAMs_o-7" value="" style="group" parent="2AGFnVR7y4NEZtL3Teil-1" vertex="1" connectable="0">
          <mxGeometry width="309" height="39" as="geometry" />
        </mxCell>
        <mxCell id="aNh6FEuhw9lsT8rE3H5J-122" value="" style="rounded=1;whiteSpace=wrap;html=1;gradientColor=none;fillColor=#1C57CD;strokeColor=none;movable=1;resizable=1;rotatable=1;deletable=1;editable=1;locked=0;connectable=1;" parent="BZBJQn5B5M7l6MrAMs_o-7" vertex="1">
          <mxGeometry width="309" height="39" as="geometry" />
        </mxCell>
        <mxCell id="aNh6FEuhw9lsT8rE3H5J-123" value="" style="sketch=0;outlineConnect=0;dashed=0;verticalLabelPosition=bottom;verticalAlign=top;align=center;html=1;fontSize=12;fontStyle=0;aspect=fixed;pointerEvents=1;shape=mxgraph.aws4.gear;rounded=1;strokeColor=none;fillColor=default;" parent="BZBJQn5B5M7l6MrAMs_o-7" vertex="1">
          <mxGeometry x="280" y="11" width="17" height="17" as="geometry" />
        </mxCell>
        <mxCell id="aNh6FEuhw9lsT8rE3H5J-93" value="Регистрация пользователя" style="text;html=1;align=center;verticalAlign=middle;whiteSpace=wrap;rounded=1;fontSize=13;fontColor=#FFFFFF;strokeColor=none;movable=1;resizable=1;rotatable=1;deletable=1;editable=1;locked=0;connectable=1;" parent="BZBJQn5B5M7l6MrAMs_o-7" vertex="1">
          <mxGeometry x="3" y="4.5" width="172" height="30" as="geometry" />
        </mxCell>
        <mxCell id="BZBJQn5B5M7l6MrAMs_o-1" value="" style="group" parent="1" vertex="1" connectable="0">
          <mxGeometry x="1041" y="350" width="309" height="39" as="geometry" />
        </mxCell>
        <mxCell id="BZBJQn5B5M7l6MrAMs_o-53" value="" style="group" parent="BZBJQn5B5M7l6MrAMs_o-1" vertex="1" connectable="0">
          <mxGeometry x="-7" width="309" height="39" as="geometry" />
        </mxCell>
        <mxCell id="cKbgiC5qh_IXnBO1eU4K-175" value="" style="rounded=1;whiteSpace=wrap;html=1;fillColor=#1C57CD;strokeColor=none;" parent="BZBJQn5B5M7l6MrAMs_o-53" vertex="1">
          <mxGeometry width="309" height="39" as="geometry" />
        </mxCell>
        <mxCell id="cKbgiC5qh_IXnBO1eU4K-176" value="" style="sketch=0;outlineConnect=0;fontColor=#FFFFFF;gradientColor=none;fillColor=#FFFFFF;strokeColor=none;dashed=0;verticalLabelPosition=bottom;verticalAlign=top;align=center;html=1;fontSize=12;fontStyle=0;aspect=fixed;pointerEvents=1;shape=mxgraph.aws4.gear;rounded=1;" parent="BZBJQn5B5M7l6MrAMs_o-53" vertex="1">
          <mxGeometry x="280" y="11" width="17" height="17" as="geometry" />
        </mxCell>
        <mxCell id="cKbgiC5qh_IXnBO1eU4K-177" value="Зарегистрироваться на площадке" style="text;html=1;align=center;verticalAlign=middle;whiteSpace=wrap;rounded=1;fontSize=13;fontColor=#FFFFFF;" parent="BZBJQn5B5M7l6MrAMs_o-53" vertex="1">
          <mxGeometry x="9" y="4.5" width="218" height="30" as="geometry" />
        </mxCell>
        <mxCell id="BZBJQn5B5M7l6MrAMs_o-2" value="" style="group" parent="1" vertex="1" connectable="0">
          <mxGeometry x="1034" y="400" width="309" height="39" as="geometry" />
        </mxCell>
        <mxCell id="BZBJQn5B5M7l6MrAMs_o-54" value="" style="group" parent="BZBJQn5B5M7l6MrAMs_o-2" vertex="1" connectable="0">
          <mxGeometry width="309" height="39" as="geometry" />
        </mxCell>
        <mxCell id="cKbgiC5qh_IXnBO1eU4K-178" value="" style="rounded=1;whiteSpace=wrap;html=1;fillColor=#1C57CD;strokeColor=none;" parent="BZBJQn5B5M7l6MrAMs_o-54" vertex="1">
          <mxGeometry width="309" height="39" as="geometry" />
        </mxCell>
        <mxCell id="cKbgiC5qh_IXnBO1eU4K-179" value="" style="sketch=0;outlineConnect=0;fontColor=#FFFFFF;gradientColor=none;fillColor=#FFFFFF;strokeColor=none;dashed=0;verticalLabelPosition=bottom;verticalAlign=top;align=center;html=1;fontSize=12;fontStyle=0;aspect=fixed;pointerEvents=1;shape=mxgraph.aws4.gear;rounded=1;" parent="BZBJQn5B5M7l6MrAMs_o-54" vertex="1">
          <mxGeometry x="280" y="11" width="17" height="17" as="geometry" />
        </mxCell>
        <mxCell id="cKbgiC5qh_IXnBO1eU4K-180" value="Редактировать профиль" style="text;html=1;align=center;verticalAlign=middle;whiteSpace=wrap;rounded=1;fontSize=13;fontColor=#FFFFFF;" parent="BZBJQn5B5M7l6MrAMs_o-54" vertex="1">
          <mxGeometry x="8" y="4.5" width="164" height="30" as="geometry" />
        </mxCell>
        <mxCell id="BZBJQn5B5M7l6MrAMs_o-9" value="" style="group" parent="1" vertex="1" connectable="0">
          <mxGeometry x="1037" y="447" width="309" height="39" as="geometry" />
        </mxCell>
        <mxCell id="Tz6aEU4ManMyac2rpAqn-45" value="" style="rounded=1;whiteSpace=wrap;html=1;fillColor=#1C57CD;strokeColor=none;" parent="BZBJQn5B5M7l6MrAMs_o-9" vertex="1">
          <mxGeometry width="309" height="39" as="geometry" />
        </mxCell>
        <mxCell id="Tz6aEU4ManMyac2rpAqn-46" value="" style="sketch=0;outlineConnect=0;fontColor=#232F3E;gradientColor=none;fillColor=default;strokeColor=none;dashed=0;verticalLabelPosition=bottom;verticalAlign=top;align=center;html=1;fontSize=12;fontStyle=0;aspect=fixed;pointerEvents=1;shape=mxgraph.aws4.gear;rounded=1;" parent="BZBJQn5B5M7l6MrAMs_o-9" vertex="1">
          <mxGeometry x="280" y="11" width="17" height="17" as="geometry" />
        </mxCell>
        <mxCell id="Tz6aEU4ManMyac2rpAqn-47" value="Присвоение ролей" style="text;html=1;align=center;verticalAlign=middle;whiteSpace=wrap;rounded=1;fontSize=13;fontColor=#FFFFFF;strokeColor=none;" parent="BZBJQn5B5M7l6MrAMs_o-9" vertex="1">
          <mxGeometry x="3" y="5" width="122" height="30" as="geometry" />
        </mxCell>
        <mxCell id="ISwjRsLXD4yoOcMXPSiY-1" value="" style="group" parent="1" vertex="1" connectable="0">
          <mxGeometry x="3074" y="382" width="260" height="39" as="geometry" />
        </mxCell>
        <mxCell id="cKbgiC5qh_IXnBO1eU4K-172" value="" style="rounded=1;whiteSpace=wrap;html=1;fillColor=#ffe6cc;strokeColor=#d79b00;" parent="ISwjRsLXD4yoOcMXPSiY-1" vertex="1">
          <mxGeometry x="10" width="250" height="39" as="geometry" />
        </mxCell>
        <mxCell id="cKbgiC5qh_IXnBO1eU4K-173" value="" style="sketch=0;outlineConnect=0;fontColor=#232F3E;gradientColor=none;fillColor=#232F3D;strokeColor=none;dashed=0;verticalLabelPosition=bottom;verticalAlign=top;align=center;html=1;fontSize=12;fontStyle=0;aspect=fixed;pointerEvents=1;shape=mxgraph.aws4.gear;rounded=1;" parent="ISwjRsLXD4yoOcMXPSiY-1" vertex="1">
          <mxGeometry x="230" y="11" width="17" height="17" as="geometry" />
        </mxCell>
        <mxCell id="cKbgiC5qh_IXnBO1eU4K-174" value="Инициировать платёж" style="text;html=1;align=center;verticalAlign=middle;whiteSpace=wrap;rounded=1;fontSize=13;" parent="ISwjRsLXD4yoOcMXPSiY-1" vertex="1">
          <mxGeometry y="4.5" width="170" height="30" as="geometry" />
        </mxCell>
        <mxCell id="ISwjRsLXD4yoOcMXPSiY-2" value="" style="group" parent="1" vertex="1" connectable="0">
          <mxGeometry x="3074" y="432" width="260" height="39" as="geometry" />
        </mxCell>
        <mxCell id="cKbgiC5qh_IXnBO1eU4K-129" value="" style="rounded=1;whiteSpace=wrap;html=1;fillColor=#ffe6cc;strokeColor=#d79b00;" parent="ISwjRsLXD4yoOcMXPSiY-2" vertex="1">
          <mxGeometry x="10" width="250" height="39" as="geometry" />
        </mxCell>
        <mxCell id="cKbgiC5qh_IXnBO1eU4K-130" value="" style="sketch=0;outlineConnect=0;fontColor=#232F3E;gradientColor=none;fillColor=#232F3D;strokeColor=none;dashed=0;verticalLabelPosition=bottom;verticalAlign=top;align=center;html=1;fontSize=12;fontStyle=0;aspect=fixed;pointerEvents=1;shape=mxgraph.aws4.gear;rounded=1;" parent="ISwjRsLXD4yoOcMXPSiY-2" vertex="1">
          <mxGeometry x="230" y="11" width="17" height="17" as="geometry" />
        </mxCell>
        <mxCell id="cKbgiC5qh_IXnBO1eU4K-131" value="Подтвердить платёж" style="text;html=1;align=center;verticalAlign=middle;whiteSpace=wrap;rounded=1;fontSize=13;" parent="ISwjRsLXD4yoOcMXPSiY-2" vertex="1">
          <mxGeometry y="4.5" width="170" height="30" as="geometry" />
        </mxCell>
        <mxCell id="ISwjRsLXD4yoOcMXPSiY-3" value="" style="group" parent="1" vertex="1" connectable="0">
          <mxGeometry x="3084" y="482" width="250" height="39" as="geometry" />
        </mxCell>
        <mxCell id="cKbgiC5qh_IXnBO1eU4K-132" value="" style="rounded=1;whiteSpace=wrap;html=1;fillColor=#ffe6cc;strokeColor=#d79b00;" parent="ISwjRsLXD4yoOcMXPSiY-3" vertex="1">
          <mxGeometry width="250" height="39" as="geometry" />
        </mxCell>
        <mxCell id="cKbgiC5qh_IXnBO1eU4K-133" value="" style="sketch=0;outlineConnect=0;fontColor=#232F3E;gradientColor=none;fillColor=#232F3D;strokeColor=none;dashed=0;verticalLabelPosition=bottom;verticalAlign=top;align=center;html=1;fontSize=12;fontStyle=0;aspect=fixed;pointerEvents=1;shape=mxgraph.aws4.gear;rounded=1;" parent="ISwjRsLXD4yoOcMXPSiY-3" vertex="1">
          <mxGeometry x="220" y="11" width="17" height="17" as="geometry" />
        </mxCell>
        <mxCell id="cKbgiC5qh_IXnBO1eU4K-134" value="Предоставить статус платежа" style="text;html=1;align=center;verticalAlign=middle;whiteSpace=wrap;rounded=1;fontSize=13;" parent="ISwjRsLXD4yoOcMXPSiY-3" vertex="1">
          <mxGeometry y="4.5" width="200" height="30" as="geometry" />
        </mxCell>
        <mxCell id="ISwjRsLXD4yoOcMXPSiY-4" value="" style="group" parent="1" vertex="1" connectable="0">
          <mxGeometry x="3074" y="532" width="260" height="39" as="geometry" />
        </mxCell>
        <mxCell id="cKbgiC5qh_IXnBO1eU4K-135" value="" style="rounded=1;whiteSpace=wrap;html=1;fillColor=#ffe6cc;strokeColor=#d79b00;" parent="ISwjRsLXD4yoOcMXPSiY-4" vertex="1">
          <mxGeometry x="10" width="250" height="39" as="geometry" />
        </mxCell>
        <mxCell id="cKbgiC5qh_IXnBO1eU4K-136" value="" style="sketch=0;outlineConnect=0;fontColor=#232F3E;gradientColor=none;fillColor=#232F3D;strokeColor=none;dashed=0;verticalLabelPosition=bottom;verticalAlign=top;align=center;html=1;fontSize=12;fontStyle=0;aspect=fixed;pointerEvents=1;shape=mxgraph.aws4.gear;rounded=1;" parent="ISwjRsLXD4yoOcMXPSiY-4" vertex="1">
          <mxGeometry x="230" y="11" width="17" height="17" as="geometry" />
        </mxCell>
        <mxCell id="cKbgiC5qh_IXnBO1eU4K-137" value="Подтвердить отмену платежа" style="text;html=1;align=center;verticalAlign=middle;whiteSpace=wrap;rounded=1;fontSize=13;" parent="ISwjRsLXD4yoOcMXPSiY-4" vertex="1">
          <mxGeometry y="4.5" width="210" height="30" as="geometry" />
        </mxCell>
        <mxCell id="MH2jeLUeA2oz_tTjhNLT-2" value="Профиль" style="text;html=1;align=center;verticalAlign=middle;whiteSpace=wrap;rounded=0;" vertex="1" parent="1">
          <mxGeometry x="1107" y="245" width="179" height="30" as="geometry" />
        </mxCell>
        <mxCell id="cKbgiC5qh_IXnBO1eU4K-49" value="&lt;p style=&quot;margin: 0px 0px 0px 13px; text-indent: -13px; font-variant-numeric: normal; font-variant-east-asian: normal; font-variant-alternates: normal; font-kerning: auto; font-optical-sizing: auto; font-feature-settings: normal; font-variation-settings: normal; font-variant-position: normal; font-stretch: normal; font-size: 14px; line-height: normal; color: rgb(14, 14, 14); text-align: start;&quot; class=&quot;p1&quot;&gt;&lt;font face=&quot;Times New Roman&quot;&gt;Пользователь.Роль&lt;/font&gt;&lt;/p&gt;" style="rounded=1;whiteSpace=wrap;html=1;fillColor=#b1ddf0;strokeColor=#10739e;" parent="1" vertex="1">
          <mxGeometry x="1098" y="639" width="151" height="21" as="geometry" />
        </mxCell>
        <mxCell id="cKbgiC5qh_IXnBO1eU4K-50" value="&lt;p style=&quot;margin: 0px 0px 0px 13px; text-indent: -13px; font-variant-numeric: normal; font-variant-east-asian: normal; font-variant-alternates: normal; font-kerning: auto; font-optical-sizing: auto; font-feature-settings: normal; font-variation-settings: normal; font-variant-position: normal; font-stretch: normal; font-size: 14px; line-height: normal; color: rgb(14, 14, 14); text-align: start;&quot; class=&quot;p1&quot;&gt;&lt;font face=&quot;Times New Roman&quot;&gt;Пользователь.ID&lt;/font&gt;&lt;/p&gt;" style="rounded=1;whiteSpace=wrap;html=1;fillColor=#b1ddf0;strokeColor=#10739e;" parent="1" vertex="1">
          <mxGeometry x="1097" y="535" width="151" height="21" as="geometry" />
        </mxCell>
        <mxCell id="cKbgiC5qh_IXnBO1eU4K-56" value="&lt;p style=&quot;margin: 0px 0px 0px 13px; text-indent: -13px; font-variant-numeric: normal; font-variant-east-asian: normal; font-variant-alternates: normal; font-kerning: auto; font-optical-sizing: auto; font-feature-settings: normal; font-variation-settings: normal; font-variant-position: normal; font-stretch: normal; font-size: 14px; line-height: normal; color: rgb(14, 14, 14); text-align: start;&quot; class=&quot;p1&quot;&gt;&lt;font face=&quot;Times New Roman&quot;&gt;Пользователь.Имя&lt;/font&gt;&lt;/p&gt;" style="rounded=1;whiteSpace=wrap;html=1;fillColor=#b1ddf0;strokeColor=#10739e;" parent="1" vertex="1">
          <mxGeometry x="1097" y="560" width="119" height="21" as="geometry" />
        </mxCell>
        <mxCell id="cKbgiC5qh_IXnBO1eU4K-57" value="&lt;p style=&quot;margin: 0px 0px 0px 13px; text-indent: -13px; font-variant-numeric: normal; font-variant-east-asian: normal; font-variant-alternates: normal; font-kerning: auto; font-optical-sizing: auto; font-feature-settings: normal; font-variation-settings: normal; font-variant-position: normal; font-stretch: normal; font-size: 14px; line-height: normal; color: rgb(14, 14, 14); text-align: start;&quot; class=&quot;p1&quot;&gt;&lt;font face=&quot;Times New Roman&quot;&gt;Пользователь.Фамилия&lt;/font&gt;&lt;/p&gt;" style="rounded=1;whiteSpace=wrap;html=1;fillColor=#b1ddf0;strokeColor=#10739e;" parent="1" vertex="1">
          <mxGeometry x="1098" y="585" width="151" height="21" as="geometry" />
        </mxCell>
        <mxCell id="cKbgiC5qh_IXnBO1eU4K-60" value="&lt;p style=&quot;margin: 0px 0px 0px 13px; text-indent: -13px; font-variant-numeric: normal; font-variant-east-asian: normal; font-variant-alternates: normal; font-kerning: auto; font-optical-sizing: auto; font-feature-settings: normal; font-variation-settings: normal; font-variant-position: normal; font-stretch: normal; font-size: 14px; line-height: normal; color: rgb(14, 14, 14); text-align: start;&quot; class=&quot;p1&quot;&gt;&lt;font face=&quot;Times New Roman&quot;&gt;Пользователь.Адрес&lt;/font&gt;&lt;/p&gt;" style="rounded=1;whiteSpace=wrap;html=1;fillColor=#b1ddf0;strokeColor=#10739e;" parent="1" vertex="1">
          <mxGeometry x="1099" y="691" width="130" height="21" as="geometry" />
        </mxCell>
        <mxCell id="cKbgiC5qh_IXnBO1eU4K-68" value="&lt;p style=&quot;margin: 0px 0px 0px 13px; text-indent: -13px; font-variant-numeric: normal; font-variant-east-asian: normal; font-variant-alternates: normal; font-kerning: auto; font-optical-sizing: auto; font-feature-settings: normal; font-variation-settings: normal; font-variant-position: normal; font-stretch: normal; font-size: 14px; line-height: normal; color: rgb(14, 14, 14); text-align: start;&quot; class=&quot;p1&quot;&gt;&lt;font face=&quot;Times New Roman&quot;&gt;Пользователь.Дата регистрации&lt;/font&gt;&lt;/p&gt;" style="rounded=1;whiteSpace=wrap;html=1;fillColor=#b1ddf0;strokeColor=#10739e;" parent="1" vertex="1">
          <mxGeometry x="1099" y="612" width="199" height="21" as="geometry" />
        </mxCell>
        <mxCell id="cKbgiC5qh_IXnBO1eU4K-70" value="&lt;p style=&quot;margin: 0px 0px 0px 13px; text-indent: -13px; font-variant-numeric: normal; font-variant-east-asian: normal; font-variant-alternates: normal; font-kerning: auto; font-optical-sizing: auto; font-feature-settings: normal; font-variation-settings: normal; font-variant-position: normal; font-stretch: normal; font-size: 14px; line-height: normal; color: rgb(14, 14, 14); text-align: start;&quot; class=&quot;p1&quot;&gt;&lt;font face=&quot;Times New Roman&quot;&gt;Пользователь.Электронная почта&lt;/font&gt;&lt;/p&gt;" style="rounded=1;whiteSpace=wrap;html=1;fillColor=#b1ddf0;strokeColor=#10739e;" parent="1" vertex="1">
          <mxGeometry x="1098" y="665" width="209" height="21" as="geometry" />
        </mxCell>
        <mxCell id="cKbgiC5qh_IXnBO1eU4K-77" value="&lt;p style=&quot;margin: 0px 0px 0px 13px; text-indent: -13px; font-variant-numeric: normal; font-variant-east-asian: normal; font-variant-alternates: normal; font-kerning: auto; font-optical-sizing: auto; font-feature-settings: normal; font-variation-settings: normal; font-variant-position: normal; font-stretch: normal; font-size: 14px; line-height: normal; color: rgb(14, 14, 14); text-align: start;&quot; class=&quot;p1&quot;&gt;&lt;font face=&quot;Times New Roman&quot;&gt;Пользователь.Активен&lt;/font&gt;&lt;/p&gt;" style="rounded=1;whiteSpace=wrap;html=1;fillColor=#b1ddf0;strokeColor=#10739e;" parent="1" vertex="1">
          <mxGeometry x="1099" y="717" width="147" height="21" as="geometry" />
        </mxCell>
        <mxCell id="MH2jeLUeA2oz_tTjhNLT-7" value="" style="rounded=1;whiteSpace=wrap;html=1;" vertex="1" parent="1">
          <mxGeometry x="2105" y="225" width="349" height="562" as="geometry" />
        </mxCell>
        <mxCell id="MH2jeLUeA2oz_tTjhNLT-8" value="" style="shape=cylinder3;whiteSpace=wrap;html=1;boundedLbl=1;backgroundOutline=1;size=15;" vertex="1" parent="1">
          <mxGeometry x="2255" y="664" width="180" height="102" as="geometry" />
        </mxCell>
        <mxCell id="MH2jeLUeA2oz_tTjhNLT-22" value="Заказ" style="text;html=1;align=center;verticalAlign=middle;whiteSpace=wrap;rounded=0;" vertex="1" parent="1">
          <mxGeometry x="2224" y="233" width="179" height="30" as="geometry" />
        </mxCell>
        <mxCell id="MH2jeLUeA2oz_tTjhNLT-31" value="" style="group" vertex="1" connectable="0" parent="1">
          <mxGeometry x="2275" y="653" width="151" height="49" as="geometry" />
        </mxCell>
        <mxCell id="MH2jeLUeA2oz_tTjhNLT-32" value="&lt;p style=&quot;margin: 0px 0px 0px 13px; text-indent: -13px; font-variant-numeric: normal; font-variant-east-asian: normal; font-variant-alternates: normal; font-kerning: auto; font-optical-sizing: auto; font-feature-settings: normal; font-variation-settings: normal; font-variant-position: normal; font-stretch: normal; font-size: 14px; line-height: normal; color: rgb(14, 14, 14); text-align: start;&quot; class=&quot;p1&quot;&gt;&lt;br&gt;&lt;/p&gt;" style="rounded=1;whiteSpace=wrap;html=1;fillColor=#FF77BF;strokeColor=none;arcSize=50;" vertex="1" parent="MH2jeLUeA2oz_tTjhNLT-31">
          <mxGeometry y="9" width="151" height="33" as="geometry" />
        </mxCell>
        <mxCell id="MH2jeLUeA2oz_tTjhNLT-33" value="&lt;font style=&quot;font-size: 18px;&quot;&gt;&lt;i&gt;PostgreSQL&lt;/i&gt;&lt;/font&gt;" style="text;html=1;align=center;verticalAlign=middle;whiteSpace=wrap;rounded=1;shadow=0;fontSize=23;fontStyle=1" vertex="1" parent="MH2jeLUeA2oz_tTjhNLT-31">
          <mxGeometry x="31" width="89" height="49" as="geometry" />
        </mxCell>
        <mxCell id="BZBJQn5B5M7l6MrAMs_o-14" value="" style="group" parent="1" vertex="1" connectable="0">
          <mxGeometry x="2123" y="278" width="309" height="39" as="geometry" />
        </mxCell>
        <mxCell id="Tz6aEU4ManMyac2rpAqn-75" value="" style="rounded=1;whiteSpace=wrap;html=1;fillColor=#1C57CD;strokeColor=none;" parent="BZBJQn5B5M7l6MrAMs_o-14" vertex="1">
          <mxGeometry width="309" height="39" as="geometry" />
        </mxCell>
        <mxCell id="Tz6aEU4ManMyac2rpAqn-76" value="" style="sketch=0;outlineConnect=0;fontColor=#232F3E;gradientColor=none;fillColor=default;strokeColor=none;dashed=0;verticalLabelPosition=bottom;verticalAlign=top;align=center;html=1;fontSize=12;fontStyle=0;aspect=fixed;pointerEvents=1;shape=mxgraph.aws4.gear;rounded=1;" parent="BZBJQn5B5M7l6MrAMs_o-14" vertex="1">
          <mxGeometry x="282" y="11" width="17" height="17" as="geometry" />
        </mxCell>
        <mxCell id="Tz6aEU4ManMyac2rpAqn-77" value="Создание заказа" style="text;html=1;align=center;verticalAlign=middle;whiteSpace=wrap;rounded=1;fontSize=13;fontColor=#FFFFFF;strokeColor=none;" parent="BZBJQn5B5M7l6MrAMs_o-14" vertex="1">
          <mxGeometry x="5" y="4.5" width="110" height="30" as="geometry" />
        </mxCell>
        <mxCell id="BZBJQn5B5M7l6MrAMs_o-15" value="" style="group" parent="1" vertex="1" connectable="0">
          <mxGeometry x="2123" y="326" width="309" height="39" as="geometry" />
        </mxCell>
        <mxCell id="Tz6aEU4ManMyac2rpAqn-78" value="" style="rounded=1;whiteSpace=wrap;html=1;fillColor=#1C57CD;strokeColor=none;" parent="BZBJQn5B5M7l6MrAMs_o-15" vertex="1">
          <mxGeometry width="309" height="39" as="geometry" />
        </mxCell>
        <mxCell id="Tz6aEU4ManMyac2rpAqn-79" value="" style="sketch=0;outlineConnect=0;fontColor=#232F3E;gradientColor=none;fillColor=default;strokeColor=none;dashed=0;verticalLabelPosition=bottom;verticalAlign=top;align=center;html=1;fontSize=12;fontStyle=0;aspect=fixed;pointerEvents=1;shape=mxgraph.aws4.gear;rounded=1;" parent="BZBJQn5B5M7l6MrAMs_o-15" vertex="1">
          <mxGeometry x="282" y="11" width="17" height="17" as="geometry" />
        </mxCell>
        <mxCell id="Tz6aEU4ManMyac2rpAqn-80" value="Редактирование заказа" style="text;html=1;align=center;verticalAlign=middle;whiteSpace=wrap;rounded=1;fontSize=13;fontColor=#FFFFFF;strokeColor=none;" parent="BZBJQn5B5M7l6MrAMs_o-15" vertex="1">
          <mxGeometry x="3" y="4.5" width="154" height="30" as="geometry" />
        </mxCell>
        <mxCell id="BZBJQn5B5M7l6MrAMs_o-16" value="" style="group" parent="1" vertex="1" connectable="0">
          <mxGeometry x="2123" y="374" width="309" height="39" as="geometry" />
        </mxCell>
        <mxCell id="Tz6aEU4ManMyac2rpAqn-81" value="" style="rounded=1;whiteSpace=wrap;html=1;fillColor=#1C57CD;strokeColor=none;" parent="BZBJQn5B5M7l6MrAMs_o-16" vertex="1">
          <mxGeometry width="309" height="39" as="geometry" />
        </mxCell>
        <mxCell id="Tz6aEU4ManMyac2rpAqn-82" value="" style="sketch=0;outlineConnect=0;fontColor=#232F3E;gradientColor=none;fillColor=default;strokeColor=none;dashed=0;verticalLabelPosition=bottom;verticalAlign=top;align=center;html=1;fontSize=12;fontStyle=0;aspect=fixed;pointerEvents=1;shape=mxgraph.aws4.gear;rounded=1;" parent="BZBJQn5B5M7l6MrAMs_o-16" vertex="1">
          <mxGeometry x="282" y="11" width="17" height="17" as="geometry" />
        </mxCell>
        <mxCell id="Tz6aEU4ManMyac2rpAqn-83" value="Сохранение заказа" style="text;html=1;align=center;verticalAlign=middle;whiteSpace=wrap;rounded=1;fontSize=13;fontColor=#FFFFFF;strokeColor=none;" parent="BZBJQn5B5M7l6MrAMs_o-16" vertex="1">
          <mxGeometry x="4" y="4" width="126" height="30" as="geometry" />
        </mxCell>
        <mxCell id="BZBJQn5B5M7l6MrAMs_o-17" value="" style="group" parent="1" vertex="1" connectable="0">
          <mxGeometry x="2123" y="423" width="309" height="39" as="geometry" />
        </mxCell>
        <mxCell id="Tz6aEU4ManMyac2rpAqn-84" value="" style="rounded=1;whiteSpace=wrap;html=1;fillColor=#1C57CD;strokeColor=none;" parent="BZBJQn5B5M7l6MrAMs_o-17" vertex="1">
          <mxGeometry width="309" height="39" as="geometry" />
        </mxCell>
        <mxCell id="Tz6aEU4ManMyac2rpAqn-85" value="" style="sketch=0;outlineConnect=0;fontColor=#232F3E;gradientColor=none;fillColor=default;strokeColor=none;dashed=0;verticalLabelPosition=bottom;verticalAlign=top;align=center;html=1;fontSize=12;fontStyle=0;aspect=fixed;pointerEvents=1;shape=mxgraph.aws4.gear;rounded=1;" parent="BZBJQn5B5M7l6MrAMs_o-17" vertex="1">
          <mxGeometry x="281.5" y="11" width="17" height="17" as="geometry" />
        </mxCell>
        <mxCell id="Tz6aEU4ManMyac2rpAqn-86" value="Подтверждение заказа" style="text;html=1;align=center;verticalAlign=middle;whiteSpace=wrap;rounded=1;fontSize=13;fontColor=#FFFFFF;strokeColor=none;" parent="BZBJQn5B5M7l6MrAMs_o-17" vertex="1">
          <mxGeometry x="4" y="4.5" width="152" height="30" as="geometry" />
        </mxCell>
        <mxCell id="BZBJQn5B5M7l6MrAMs_o-18" value="" style="group" parent="1" vertex="1" connectable="0">
          <mxGeometry x="2123" y="471" width="309" height="39" as="geometry" />
        </mxCell>
        <mxCell id="Tz6aEU4ManMyac2rpAqn-87" value="" style="rounded=1;whiteSpace=wrap;html=1;fillColor=#1C57CD;strokeColor=none;" parent="BZBJQn5B5M7l6MrAMs_o-18" vertex="1">
          <mxGeometry width="309" height="39" as="geometry" />
        </mxCell>
        <mxCell id="Tz6aEU4ManMyac2rpAqn-88" value="" style="sketch=0;outlineConnect=0;fontColor=#232F3E;gradientColor=none;fillColor=default;strokeColor=none;dashed=0;verticalLabelPosition=bottom;verticalAlign=top;align=center;html=1;fontSize=12;fontStyle=0;aspect=fixed;pointerEvents=1;shape=mxgraph.aws4.gear;rounded=1;" parent="BZBJQn5B5M7l6MrAMs_o-18" vertex="1">
          <mxGeometry x="281.5" y="11" width="17" height="17" as="geometry" />
        </mxCell>
        <mxCell id="Tz6aEU4ManMyac2rpAqn-89" value="Размещение заказа" style="text;html=1;align=center;verticalAlign=middle;whiteSpace=wrap;rounded=1;fontSize=13;fontColor=#FFFFFF;strokeColor=none;" parent="BZBJQn5B5M7l6MrAMs_o-18" vertex="1">
          <mxGeometry x="3" y="4.5" width="130.5" height="30" as="geometry" />
        </mxCell>
        <mxCell id="BZBJQn5B5M7l6MrAMs_o-19" value="" style="group" parent="1" vertex="1" connectable="0">
          <mxGeometry x="2123" y="520" width="309" height="39" as="geometry" />
        </mxCell>
        <mxCell id="Tz6aEU4ManMyac2rpAqn-90" value="" style="rounded=1;whiteSpace=wrap;html=1;fillColor=#1C57CD;strokeColor=none;" parent="BZBJQn5B5M7l6MrAMs_o-19" vertex="1">
          <mxGeometry width="309" height="39" as="geometry" />
        </mxCell>
        <mxCell id="Tz6aEU4ManMyac2rpAqn-91" value="" style="sketch=0;outlineConnect=0;fontColor=#232F3E;gradientColor=none;fillColor=default;strokeColor=none;dashed=0;verticalLabelPosition=bottom;verticalAlign=top;align=center;html=1;fontSize=12;fontStyle=0;aspect=fixed;pointerEvents=1;shape=mxgraph.aws4.gear;rounded=1;" parent="BZBJQn5B5M7l6MrAMs_o-19" vertex="1">
          <mxGeometry x="281.5" y="11" width="17" height="17" as="geometry" />
        </mxCell>
        <mxCell id="Tz6aEU4ManMyac2rpAqn-92" value="Отобразить все заказы" style="text;html=1;align=center;verticalAlign=middle;whiteSpace=wrap;rounded=1;fontSize=13;fontColor=#FFFFFF;strokeColor=none;" parent="BZBJQn5B5M7l6MrAMs_o-19" vertex="1">
          <mxGeometry x="3" y="4.5" width="152" height="30" as="geometry" />
        </mxCell>
        <mxCell id="BZBJQn5B5M7l6MrAMs_o-20" value="" style="group" parent="1" vertex="1" connectable="0">
          <mxGeometry x="2123" y="570" width="309" height="39" as="geometry" />
        </mxCell>
        <mxCell id="Tz6aEU4ManMyac2rpAqn-93" value="" style="rounded=1;whiteSpace=wrap;html=1;fillColor=#1C57CD;strokeColor=none;" parent="BZBJQn5B5M7l6MrAMs_o-20" vertex="1">
          <mxGeometry width="309" height="39" as="geometry" />
        </mxCell>
        <mxCell id="Tz6aEU4ManMyac2rpAqn-94" value="" style="sketch=0;outlineConnect=0;fontColor=#232F3E;gradientColor=none;fillColor=default;strokeColor=none;dashed=0;verticalLabelPosition=bottom;verticalAlign=top;align=center;html=1;fontSize=12;fontStyle=0;aspect=fixed;pointerEvents=1;shape=mxgraph.aws4.gear;rounded=1;" parent="BZBJQn5B5M7l6MrAMs_o-20" vertex="1">
          <mxGeometry x="282" y="11" width="17" height="17" as="geometry" />
        </mxCell>
        <mxCell id="Tz6aEU4ManMyac2rpAqn-95" value="Отобразить детали заказа" style="text;html=1;align=center;verticalAlign=middle;whiteSpace=wrap;rounded=1;fontSize=13;fontColor=#FFFFFF;strokeColor=none;" parent="BZBJQn5B5M7l6MrAMs_o-20" vertex="1">
          <mxGeometry x="5" y="5" width="169" height="30" as="geometry" />
        </mxCell>
        <mxCell id="MH2jeLUeA2oz_tTjhNLT-36" value="&lt;p style=&quot;margin: 0px 0px 0px 13px; text-indent: -13px; font-variant-numeric: normal; font-variant-east-asian: normal; font-variant-alternates: normal; font-kerning: auto; font-optical-sizing: auto; font-feature-settings: normal; font-variation-settings: normal; font-variant-position: normal; font-stretch: normal; font-size: 14px; line-height: normal; color: rgb(14, 14, 14); text-align: start;&quot; class=&quot;p1&quot;&gt;&lt;font face=&quot;Times New Roman&quot;&gt;Заказ.ID&lt;/font&gt;&lt;/p&gt;" style="rounded=1;whiteSpace=wrap;html=1;fillColor=#b1ddf0;strokeColor=#10739e;" vertex="1" parent="1">
          <mxGeometry x="2275" y="709" width="151" height="21" as="geometry" />
        </mxCell>
        <mxCell id="MH2jeLUeA2oz_tTjhNLT-37" value="&lt;p style=&quot;margin: 0px 0px 0px 13px; text-indent: -13px; font-variant-numeric: normal; font-variant-east-asian: normal; font-variant-alternates: normal; font-kerning: auto; font-optical-sizing: auto; font-feature-settings: normal; font-variation-settings: normal; font-variant-position: normal; font-stretch: normal; font-size: 14px; line-height: normal; color: rgb(14, 14, 14); text-align: start;&quot; class=&quot;p1&quot;&gt;&lt;font face=&quot;Times New Roman&quot;&gt;Заказ.Статус&lt;/font&gt;&lt;/p&gt;" style="rounded=1;whiteSpace=wrap;html=1;fillColor=#b1ddf0;strokeColor=#10739e;" vertex="1" parent="1">
          <mxGeometry x="2278" y="735" width="151" height="21" as="geometry" />
        </mxCell>
        <mxCell id="MH2jeLUeA2oz_tTjhNLT-38" style="edgeStyle=orthogonalEdgeStyle;rounded=0;orthogonalLoop=1;jettySize=auto;html=1;exitX=0.5;exitY=1;exitDx=0;exitDy=0;exitPerimeter=0;" edge="1" parent="1" source="MH2jeLUeA2oz_tTjhNLT-8" target="MH2jeLUeA2oz_tTjhNLT-8">
          <mxGeometry relative="1" as="geometry" />
        </mxCell>
        <mxCell id="MH2jeLUeA2oz_tTjhNLT-39" value="" style="rounded=1;whiteSpace=wrap;html=1;" vertex="1" parent="1">
          <mxGeometry x="1745" y="227" width="349" height="503" as="geometry" />
        </mxCell>
        <mxCell id="MH2jeLUeA2oz_tTjhNLT-40" value="" style="shape=cylinder3;whiteSpace=wrap;html=1;boundedLbl=1;backgroundOutline=1;size=15;" vertex="1" parent="1">
          <mxGeometry x="1890" y="584" width="180" height="135" as="geometry" />
        </mxCell>
        <mxCell id="MH2jeLUeA2oz_tTjhNLT-41" value="Аукцион" style="text;html=1;align=center;verticalAlign=middle;whiteSpace=wrap;rounded=0;" vertex="1" parent="1">
          <mxGeometry x="1864" y="235" width="179" height="30" as="geometry" />
        </mxCell>
        <mxCell id="MH2jeLUeA2oz_tTjhNLT-42" value="" style="group" vertex="1" connectable="0" parent="1">
          <mxGeometry x="1910" y="573" width="151" height="49" as="geometry" />
        </mxCell>
        <mxCell id="MH2jeLUeA2oz_tTjhNLT-43" value="&lt;p style=&quot;margin: 0px 0px 0px 13px; text-indent: -13px; font-variant-numeric: normal; font-variant-east-asian: normal; font-variant-alternates: normal; font-kerning: auto; font-optical-sizing: auto; font-feature-settings: normal; font-variation-settings: normal; font-variant-position: normal; font-stretch: normal; font-size: 14px; line-height: normal; color: rgb(14, 14, 14); text-align: start;&quot; class=&quot;p1&quot;&gt;&lt;br&gt;&lt;/p&gt;" style="rounded=1;whiteSpace=wrap;html=1;fillColor=#FF77BF;strokeColor=none;arcSize=50;" vertex="1" parent="MH2jeLUeA2oz_tTjhNLT-42">
          <mxGeometry y="9" width="151" height="33" as="geometry" />
        </mxCell>
        <mxCell id="MH2jeLUeA2oz_tTjhNLT-44" value="&lt;font style=&quot;font-size: 18px;&quot;&gt;&lt;i&gt;PostgreSQL&lt;/i&gt;&lt;/font&gt;" style="text;html=1;align=center;verticalAlign=middle;whiteSpace=wrap;rounded=1;shadow=0;fontSize=23;fontStyle=1" vertex="1" parent="MH2jeLUeA2oz_tTjhNLT-42">
          <mxGeometry x="31" width="89" height="49" as="geometry" />
        </mxCell>
        <mxCell id="MH2jeLUeA2oz_tTjhNLT-73" value="&lt;p style=&quot;margin: 0px 0px 0px 13px; text-indent: -13px; font-variant-numeric: normal; font-variant-east-asian: normal; font-variant-alternates: normal; font-kerning: auto; font-optical-sizing: auto; font-feature-settings: normal; font-variation-settings: normal; font-variant-position: normal; font-stretch: normal; font-size: 14px; line-height: normal; color: rgb(14, 14, 14); text-align: start;&quot; class=&quot;p1&quot;&gt;&lt;font face=&quot;Times New Roman&quot;&gt;Заказ.ID&lt;/font&gt;&lt;/p&gt;" style="rounded=1;whiteSpace=wrap;html=1;fillColor=#b1ddf0;strokeColor=#10739e;" vertex="1" parent="1">
          <mxGeometry x="1910" y="629" width="151" height="21" as="geometry" />
        </mxCell>
        <mxCell id="MH2jeLUeA2oz_tTjhNLT-74" value="&lt;p style=&quot;margin: 0px 0px 0px 13px; text-indent: -13px; font-variant-numeric: normal; font-variant-east-asian: normal; font-variant-alternates: normal; font-kerning: auto; font-optical-sizing: auto; font-feature-settings: normal; font-variation-settings: normal; font-variant-position: normal; font-stretch: normal; font-size: 14px; line-height: normal; color: rgb(14, 14, 14); text-align: start;&quot; class=&quot;p1&quot;&gt;&lt;font face=&quot;Times New Roman&quot;&gt;Заказ.Статус&lt;/font&gt;&lt;/p&gt;" style="rounded=1;whiteSpace=wrap;html=1;fillColor=#b1ddf0;strokeColor=#10739e;" vertex="1" parent="1">
          <mxGeometry x="1913" y="655" width="151" height="21" as="geometry" />
        </mxCell>
        <mxCell id="MH2jeLUeA2oz_tTjhNLT-75" style="edgeStyle=orthogonalEdgeStyle;rounded=0;orthogonalLoop=1;jettySize=auto;html=1;exitX=0.5;exitY=1;exitDx=0;exitDy=0;exitPerimeter=0;" edge="1" parent="1" source="MH2jeLUeA2oz_tTjhNLT-40" target="MH2jeLUeA2oz_tTjhNLT-40">
          <mxGeometry relative="1" as="geometry" />
        </mxCell>
        <mxCell id="BZBJQn5B5M7l6MrAMs_o-6" value="" style="group" parent="1" vertex="1" connectable="0">
          <mxGeometry x="1756" y="257" width="309" height="39" as="geometry" />
        </mxCell>
        <mxCell id="BZBJQn5B5M7l6MrAMs_o-58" value="" style="group" parent="BZBJQn5B5M7l6MrAMs_o-6" vertex="1" connectable="0">
          <mxGeometry width="309" height="39" as="geometry" />
        </mxCell>
        <mxCell id="cKbgiC5qh_IXnBO1eU4K-190" value="" style="rounded=1;whiteSpace=wrap;html=1;fillColor=#1C57CD;strokeColor=none;" parent="BZBJQn5B5M7l6MrAMs_o-58" vertex="1">
          <mxGeometry width="309" height="39" as="geometry" />
        </mxCell>
        <mxCell id="cKbgiC5qh_IXnBO1eU4K-191" value="" style="sketch=0;outlineConnect=0;fontColor=#FFFFFF;gradientColor=none;fillColor=#FFFFFF;strokeColor=none;dashed=0;verticalLabelPosition=bottom;verticalAlign=top;align=center;html=1;fontSize=12;fontStyle=0;aspect=fixed;pointerEvents=1;shape=mxgraph.aws4.gear;rounded=1;" parent="BZBJQn5B5M7l6MrAMs_o-58" vertex="1">
          <mxGeometry x="280" y="11" width="17" height="17" as="geometry" />
        </mxCell>
        <mxCell id="cKbgiC5qh_IXnBO1eU4K-192" value="Подать заявку на аукцион" style="text;html=1;align=center;verticalAlign=middle;whiteSpace=wrap;rounded=1;fontSize=13;fontColor=#FFFFFF;" parent="BZBJQn5B5M7l6MrAMs_o-58" vertex="1">
          <mxGeometry x="10" y="4.5" width="167" height="30" as="geometry" />
        </mxCell>
        <mxCell id="BZBJQn5B5M7l6MrAMs_o-27" value="" style="group" parent="1" vertex="1" connectable="0">
          <mxGeometry x="1758" y="301" width="309" height="39" as="geometry" />
        </mxCell>
        <mxCell id="Tz6aEU4ManMyac2rpAqn-135" value="" style="rounded=1;whiteSpace=wrap;html=1;fillColor=#1C57CD;strokeColor=none;" parent="BZBJQn5B5M7l6MrAMs_o-27" vertex="1">
          <mxGeometry width="309" height="39" as="geometry" />
        </mxCell>
        <mxCell id="Tz6aEU4ManMyac2rpAqn-136" value="" style="sketch=0;outlineConnect=0;fontColor=#232F3E;gradientColor=none;fillColor=#FFFFFF;strokeColor=none;dashed=0;verticalLabelPosition=bottom;verticalAlign=top;align=center;html=1;fontSize=12;fontStyle=0;aspect=fixed;pointerEvents=1;shape=mxgraph.aws4.gear;rounded=1;" parent="BZBJQn5B5M7l6MrAMs_o-27" vertex="1">
          <mxGeometry x="286" y="11" width="17" height="17" as="geometry" />
        </mxCell>
        <mxCell id="Tz6aEU4ManMyac2rpAqn-137" value="Создать аукцион" style="text;html=1;align=center;verticalAlign=middle;whiteSpace=wrap;rounded=1;fontSize=13;fontColor=#FFFFFF;strokeColor=none;" parent="BZBJQn5B5M7l6MrAMs_o-27" vertex="1">
          <mxGeometry x="3" y="4.5" width="113" height="30" as="geometry" />
        </mxCell>
        <mxCell id="BZBJQn5B5M7l6MrAMs_o-28" value="" style="group" parent="1" vertex="1" connectable="0">
          <mxGeometry x="1758" y="348.5" width="309" height="39" as="geometry" />
        </mxCell>
        <mxCell id="Tz6aEU4ManMyac2rpAqn-140" value="" style="rounded=1;whiteSpace=wrap;html=1;fillColor=#1C57CD;strokeColor=none;" parent="BZBJQn5B5M7l6MrAMs_o-28" vertex="1">
          <mxGeometry width="309" height="39" as="geometry" />
        </mxCell>
        <mxCell id="Tz6aEU4ManMyac2rpAqn-141" value="" style="sketch=0;outlineConnect=0;fontColor=#232F3E;gradientColor=none;fillColor=#FFFFFF;strokeColor=none;dashed=0;verticalLabelPosition=bottom;verticalAlign=top;align=center;html=1;fontSize=12;fontStyle=0;aspect=fixed;pointerEvents=1;shape=mxgraph.aws4.gear;rounded=1;" parent="BZBJQn5B5M7l6MrAMs_o-28" vertex="1">
          <mxGeometry x="286" y="11" width="17" height="17" as="geometry" />
        </mxCell>
        <mxCell id="Tz6aEU4ManMyac2rpAqn-142" value="Редактировать аукцион" style="text;html=1;align=center;verticalAlign=middle;whiteSpace=wrap;rounded=1;fontSize=13;fontColor=#FFFFFF;strokeColor=none;" parent="BZBJQn5B5M7l6MrAMs_o-28" vertex="1">
          <mxGeometry x="3" y="4.5" width="160" height="30" as="geometry" />
        </mxCell>
        <mxCell id="BZBJQn5B5M7l6MrAMs_o-29" value="" style="group" parent="1" vertex="1" connectable="0">
          <mxGeometry x="1758" y="396" width="309" height="39" as="geometry" />
        </mxCell>
        <mxCell id="Tz6aEU4ManMyac2rpAqn-143" value="" style="rounded=1;whiteSpace=wrap;html=1;fillColor=#1C57CD;strokeColor=none;" parent="BZBJQn5B5M7l6MrAMs_o-29" vertex="1">
          <mxGeometry width="309" height="39" as="geometry" />
        </mxCell>
        <mxCell id="Tz6aEU4ManMyac2rpAqn-144" value="" style="sketch=0;outlineConnect=0;fontColor=#232F3E;gradientColor=none;fillColor=#FFFFFF;strokeColor=none;dashed=0;verticalLabelPosition=bottom;verticalAlign=top;align=center;html=1;fontSize=12;fontStyle=0;aspect=fixed;pointerEvents=1;shape=mxgraph.aws4.gear;rounded=1;" parent="BZBJQn5B5M7l6MrAMs_o-29" vertex="1">
          <mxGeometry x="286" y="11" width="17" height="17" as="geometry" />
        </mxCell>
        <mxCell id="Tz6aEU4ManMyac2rpAqn-145" value="Обработать новую заявку на аукцион" style="text;html=1;align=center;verticalAlign=middle;whiteSpace=wrap;rounded=1;fontSize=13;fontColor=#FFFFFF;strokeColor=none;" parent="BZBJQn5B5M7l6MrAMs_o-29" vertex="1">
          <mxGeometry x="3" y="4.5" width="241" height="30" as="geometry" />
        </mxCell>
        <mxCell id="BZBJQn5B5M7l6MrAMs_o-30" value="" style="group" parent="1" vertex="1" connectable="0">
          <mxGeometry x="1758" y="444" width="309" height="39" as="geometry" />
        </mxCell>
        <mxCell id="Tz6aEU4ManMyac2rpAqn-146" value="" style="rounded=1;whiteSpace=wrap;html=1;fillColor=#1C57CD;strokeColor=none;" parent="BZBJQn5B5M7l6MrAMs_o-30" vertex="1">
          <mxGeometry width="309" height="39" as="geometry" />
        </mxCell>
        <mxCell id="Tz6aEU4ManMyac2rpAqn-147" value="" style="sketch=0;outlineConnect=0;fontColor=#232F3E;gradientColor=none;fillColor=#FFFFFF;strokeColor=none;dashed=0;verticalLabelPosition=bottom;verticalAlign=top;align=center;html=1;fontSize=12;fontStyle=0;aspect=fixed;pointerEvents=1;shape=mxgraph.aws4.gear;rounded=1;" parent="BZBJQn5B5M7l6MrAMs_o-30" vertex="1">
          <mxGeometry x="286" y="11" width="17" height="17" as="geometry" />
        </mxCell>
        <mxCell id="Tz6aEU4ManMyac2rpAqn-148" value="Обновление ставок аукциона" style="text;html=1;align=center;verticalAlign=middle;whiteSpace=wrap;rounded=1;fontSize=13;fontColor=#FFFFFF;strokeColor=none;" parent="BZBJQn5B5M7l6MrAMs_o-30" vertex="1">
          <mxGeometry x="4" y="4.5" width="189" height="30" as="geometry" />
        </mxCell>
        <mxCell id="BZBJQn5B5M7l6MrAMs_o-37" value="" style="group" parent="1" vertex="1" connectable="0">
          <mxGeometry x="1759" y="535" width="309" height="39" as="geometry" />
        </mxCell>
        <mxCell id="cKbgiC5qh_IXnBO1eU4K-37" value="" style="rounded=1;whiteSpace=wrap;html=1;fillColor=#1C57CD;strokeColor=none;" parent="BZBJQn5B5M7l6MrAMs_o-37" vertex="1">
          <mxGeometry width="309" height="39" as="geometry" />
        </mxCell>
        <mxCell id="cKbgiC5qh_IXnBO1eU4K-38" value="" style="sketch=0;outlineConnect=0;fontColor=#232F3E;gradientColor=none;fillColor=#FFFFFF;strokeColor=none;dashed=0;verticalLabelPosition=bottom;verticalAlign=top;align=center;html=1;fontSize=12;fontStyle=0;aspect=fixed;pointerEvents=1;shape=mxgraph.aws4.gear;rounded=1;" parent="BZBJQn5B5M7l6MrAMs_o-37" vertex="1">
          <mxGeometry x="280" y="11" width="17" height="17" as="geometry" />
        </mxCell>
        <mxCell id="cKbgiC5qh_IXnBO1eU4K-39" value="Обновление статуса аукциона" style="text;html=1;align=center;verticalAlign=middle;whiteSpace=wrap;rounded=1;fontSize=13;fontColor=#FFFFFF;strokeColor=none;" parent="BZBJQn5B5M7l6MrAMs_o-37" vertex="1">
          <mxGeometry y="4.5" width="202" height="30" as="geometry" />
        </mxCell>
        <mxCell id="BZBJQn5B5M7l6MrAMs_o-38" value="" style="group" parent="1" vertex="1" connectable="0">
          <mxGeometry x="1759" y="489" width="309" height="39" as="geometry" />
        </mxCell>
        <mxCell id="cKbgiC5qh_IXnBO1eU4K-19" value="" style="rounded=1;whiteSpace=wrap;html=1;fillColor=#1C57CD;strokeColor=none;" parent="BZBJQn5B5M7l6MrAMs_o-38" vertex="1">
          <mxGeometry width="309" height="39" as="geometry" />
        </mxCell>
        <mxCell id="cKbgiC5qh_IXnBO1eU4K-20" value="" style="sketch=0;outlineConnect=0;fontColor=#232F3E;gradientColor=none;fillColor=#FFFFFF;strokeColor=none;dashed=0;verticalLabelPosition=bottom;verticalAlign=top;align=center;html=1;fontSize=12;fontStyle=0;aspect=fixed;pointerEvents=1;shape=mxgraph.aws4.gear;rounded=1;" parent="BZBJQn5B5M7l6MrAMs_o-38" vertex="1">
          <mxGeometry x="280" y="11" width="17" height="17" as="geometry" />
        </mxCell>
        <mxCell id="cKbgiC5qh_IXnBO1eU4K-21" value="Обновление ставок аукциона" style="text;html=1;align=center;verticalAlign=middle;whiteSpace=wrap;rounded=1;fontSize=13;fontColor=#FFFFFF;strokeColor=none;" parent="BZBJQn5B5M7l6MrAMs_o-38" vertex="1">
          <mxGeometry y="4.5" width="202" height="30" as="geometry" />
        </mxCell>
        <mxCell id="MH2jeLUeA2oz_tTjhNLT-76" value="" style="group" vertex="1" connectable="0" parent="1">
          <mxGeometry x="2126" y="615" width="309" height="39" as="geometry" />
        </mxCell>
        <mxCell id="MH2jeLUeA2oz_tTjhNLT-77" value="" style="group" vertex="1" connectable="0" parent="MH2jeLUeA2oz_tTjhNLT-76">
          <mxGeometry width="309" height="39" as="geometry" />
        </mxCell>
        <mxCell id="MH2jeLUeA2oz_tTjhNLT-78" value="" style="rounded=1;whiteSpace=wrap;html=1;fillColor=#1C57CD;strokeColor=none;" vertex="1" parent="MH2jeLUeA2oz_tTjhNLT-77">
          <mxGeometry width="309" height="39" as="geometry" />
        </mxCell>
        <mxCell id="MH2jeLUeA2oz_tTjhNLT-79" value="" style="sketch=0;outlineConnect=0;fontColor=#FFFFFF;gradientColor=none;fillColor=#FFFFFF;strokeColor=none;dashed=0;verticalLabelPosition=bottom;verticalAlign=top;align=center;html=1;fontSize=12;fontStyle=0;aspect=fixed;pointerEvents=1;shape=mxgraph.aws4.gear;rounded=1;" vertex="1" parent="MH2jeLUeA2oz_tTjhNLT-77">
          <mxGeometry x="280" y="11" width="17" height="17" as="geometry" />
        </mxCell>
        <mxCell id="MH2jeLUeA2oz_tTjhNLT-80" value="Разместить заказ" style="text;html=1;align=center;verticalAlign=middle;whiteSpace=wrap;rounded=1;fontSize=13;fontColor=#FFFFFF;" vertex="1" parent="MH2jeLUeA2oz_tTjhNLT-77">
          <mxGeometry x="14" y="3" width="117" height="30" as="geometry" />
        </mxCell>
        <mxCell id="MH2jeLUeA2oz_tTjhNLT-5" value="&lt;p style=&quot;margin: 0px 0px 0px 13px; text-indent: -13px; font-variant-numeric: normal; font-variant-east-asian: normal; font-variant-alternates: normal; font-kerning: auto; font-optical-sizing: auto; font-feature-settings: normal; font-variation-settings: normal; font-variant-position: normal; font-stretch: normal; font-size: 14px; line-height: normal; color: rgb(14, 14, 14); text-align: start;&quot; class=&quot;p1&quot;&gt;&lt;br&gt;&lt;/p&gt;" style="rounded=1;whiteSpace=wrap;html=1;fillColor=#FF77BF;strokeColor=none;arcSize=50;" vertex="1" parent="1">
          <mxGeometry x="1119" y="495" width="151" height="33" as="geometry" />
        </mxCell>
        <mxCell id="MH2jeLUeA2oz_tTjhNLT-6" value="&lt;font style=&quot;font-size: 18px;&quot;&gt;&lt;i&gt;PostgreSQL&lt;/i&gt;&lt;/font&gt;" style="text;html=1;align=center;verticalAlign=middle;whiteSpace=wrap;rounded=1;shadow=0;fontSize=23;fontStyle=1" vertex="1" parent="1">
          <mxGeometry x="1146" y="485" width="89" height="49" as="geometry" />
        </mxCell>
        <mxCell id="MH2jeLUeA2oz_tTjhNLT-127" value="" style="rounded=1;whiteSpace=wrap;html=1;" vertex="1" parent="1">
          <mxGeometry x="98" y="248" width="349" height="463" as="geometry" />
        </mxCell>
        <mxCell id="MH2jeLUeA2oz_tTjhNLT-128" value="" style="shape=cylinder3;whiteSpace=wrap;html=1;boundedLbl=1;backgroundOutline=1;size=15;" vertex="1" parent="1">
          <mxGeometry x="247" y="562" width="180" height="126" as="geometry" />
        </mxCell>
        <mxCell id="MH2jeLUeA2oz_tTjhNLT-129" value="Поддержка" style="text;html=1;align=center;verticalAlign=middle;whiteSpace=wrap;rounded=0;" vertex="1" parent="1">
          <mxGeometry x="178" y="251" width="179" height="30" as="geometry" />
        </mxCell>
        <mxCell id="MH2jeLUeA2oz_tTjhNLT-130" value="" style="group" vertex="1" connectable="0" parent="1">
          <mxGeometry x="267" y="551" width="151" height="49" as="geometry" />
        </mxCell>
        <mxCell id="MH2jeLUeA2oz_tTjhNLT-131" value="&lt;p style=&quot;margin: 0px 0px 0px 13px; text-indent: -13px; font-variant-numeric: normal; font-variant-east-asian: normal; font-variant-alternates: normal; font-kerning: auto; font-optical-sizing: auto; font-feature-settings: normal; font-variation-settings: normal; font-variant-position: normal; font-stretch: normal; font-size: 14px; line-height: normal; color: rgb(14, 14, 14); text-align: start;&quot; class=&quot;p1&quot;&gt;&lt;br&gt;&lt;/p&gt;" style="rounded=1;whiteSpace=wrap;html=1;fillColor=#FF77BF;strokeColor=none;arcSize=50;" vertex="1" parent="MH2jeLUeA2oz_tTjhNLT-130">
          <mxGeometry y="9" width="151" height="33" as="geometry" />
        </mxCell>
        <mxCell id="MH2jeLUeA2oz_tTjhNLT-132" value="&lt;font style=&quot;font-size: 18px;&quot;&gt;&lt;i&gt;PostgreSQL&lt;/i&gt;&lt;/font&gt;" style="text;html=1;align=center;verticalAlign=middle;whiteSpace=wrap;rounded=1;shadow=0;fontSize=23;fontStyle=1" vertex="1" parent="MH2jeLUeA2oz_tTjhNLT-130">
          <mxGeometry x="31" width="89" height="49" as="geometry" />
        </mxCell>
        <mxCell id="MH2jeLUeA2oz_tTjhNLT-133" style="edgeStyle=orthogonalEdgeStyle;rounded=0;orthogonalLoop=1;jettySize=auto;html=1;exitX=0.5;exitY=1;exitDx=0;exitDy=0;exitPerimeter=0;" edge="1" parent="1" source="MH2jeLUeA2oz_tTjhNLT-128" target="MH2jeLUeA2oz_tTjhNLT-128">
          <mxGeometry relative="1" as="geometry" />
        </mxCell>
        <mxCell id="MH2jeLUeA2oz_tTjhNLT-135" value="Разместить услугу" style="text;html=1;align=center;verticalAlign=middle;whiteSpace=wrap;rounded=1;fontSize=13;fontColor=#FFFFFF;" vertex="1" parent="1">
          <mxGeometry x="128" y="295.5" width="132" height="30" as="geometry" />
        </mxCell>
        <mxCell id="BZBJQn5B5M7l6MrAMs_o-40" value="" style="group" parent="1" vertex="1" connectable="0">
          <mxGeometry x="113" y="511" width="309" height="39" as="geometry" />
        </mxCell>
        <mxCell id="cKbgiC5qh_IXnBO1eU4K-40" value="" style="rounded=1;whiteSpace=wrap;html=1;fillColor=#1C57CD;strokeColor=none;" parent="BZBJQn5B5M7l6MrAMs_o-40" vertex="1">
          <mxGeometry width="309" height="39" as="geometry" />
        </mxCell>
        <mxCell id="cKbgiC5qh_IXnBO1eU4K-41" value="" style="sketch=0;outlineConnect=0;fontColor=#232F3E;gradientColor=none;fillColor=#FFFFFF;strokeColor=none;dashed=0;verticalLabelPosition=bottom;verticalAlign=top;align=center;html=1;fontSize=12;fontStyle=0;aspect=fixed;pointerEvents=1;shape=mxgraph.aws4.gear;rounded=1;" parent="BZBJQn5B5M7l6MrAMs_o-40" vertex="1">
          <mxGeometry x="280" y="11" width="17" height="17" as="geometry" />
        </mxCell>
        <mxCell id="cKbgiC5qh_IXnBO1eU4K-42" value="Обновление статуса заявки" style="text;html=1;align=center;verticalAlign=middle;whiteSpace=wrap;rounded=1;fontSize=13;fontColor=#FFFFFF;strokeColor=none;" parent="BZBJQn5B5M7l6MrAMs_o-40" vertex="1">
          <mxGeometry x="8" y="4" width="176" height="30" as="geometry" />
        </mxCell>
        <mxCell id="BZBJQn5B5M7l6MrAMs_o-41" value="" style="group" parent="1" vertex="1" connectable="0">
          <mxGeometry x="113" y="466" width="309" height="39" as="geometry" />
        </mxCell>
        <mxCell id="cKbgiC5qh_IXnBO1eU4K-34" value="" style="rounded=1;whiteSpace=wrap;html=1;fillColor=#1C57CD;strokeColor=none;" parent="BZBJQn5B5M7l6MrAMs_o-41" vertex="1">
          <mxGeometry width="309" height="39" as="geometry" />
        </mxCell>
        <mxCell id="cKbgiC5qh_IXnBO1eU4K-35" value="" style="sketch=0;outlineConnect=0;fontColor=#232F3E;gradientColor=none;fillColor=#FFFFFF;strokeColor=none;dashed=0;verticalLabelPosition=bottom;verticalAlign=top;align=center;html=1;fontSize=12;fontStyle=0;aspect=fixed;pointerEvents=1;shape=mxgraph.aws4.gear;rounded=1;" parent="BZBJQn5B5M7l6MrAMs_o-41" vertex="1">
          <mxGeometry x="280" y="11" width="17" height="17" as="geometry" />
        </mxCell>
        <mxCell id="cKbgiC5qh_IXnBO1eU4K-36" value="Регистрация заявки на техподдержку" style="text;html=1;align=center;verticalAlign=middle;whiteSpace=wrap;rounded=1;fontSize=13;fontColor=#FFFFFF;strokeColor=none;" parent="BZBJQn5B5M7l6MrAMs_o-41" vertex="1">
          <mxGeometry x="4" y="4.5" width="249" height="30" as="geometry" />
        </mxCell>
        <mxCell id="BZBJQn5B5M7l6MrAMs_o-42" value="" style="group" parent="1" vertex="1" connectable="0">
          <mxGeometry x="113" y="420" width="309" height="39" as="geometry" />
        </mxCell>
        <mxCell id="cKbgiC5qh_IXnBO1eU4K-31" value="" style="rounded=1;whiteSpace=wrap;html=1;fillColor=#1C57CD;strokeColor=none;" parent="BZBJQn5B5M7l6MrAMs_o-42" vertex="1">
          <mxGeometry width="309" height="39" as="geometry" />
        </mxCell>
        <mxCell id="cKbgiC5qh_IXnBO1eU4K-32" value="" style="sketch=0;outlineConnect=0;fontColor=#232F3E;gradientColor=none;fillColor=#FFFFFF;strokeColor=none;dashed=0;verticalLabelPosition=bottom;verticalAlign=top;align=center;html=1;fontSize=12;fontStyle=0;aspect=fixed;pointerEvents=1;shape=mxgraph.aws4.gear;rounded=1;" parent="BZBJQn5B5M7l6MrAMs_o-42" vertex="1">
          <mxGeometry x="280" y="11" width="17" height="17" as="geometry" />
        </mxCell>
        <mxCell id="cKbgiC5qh_IXnBO1eU4K-33" value="Создать заявку на техподдержку" style="text;html=1;align=center;verticalAlign=middle;whiteSpace=wrap;rounded=1;fontSize=13;fontColor=#FFFFFF;strokeColor=none;" parent="BZBJQn5B5M7l6MrAMs_o-42" vertex="1">
          <mxGeometry y="4.5" width="230" height="30" as="geometry" />
        </mxCell>
        <mxCell id="BZBJQn5B5M7l6MrAMs_o-43" value="" style="group" parent="1" vertex="1" connectable="0">
          <mxGeometry x="113" y="376" width="309" height="39" as="geometry" />
        </mxCell>
        <mxCell id="cKbgiC5qh_IXnBO1eU4K-28" value="" style="rounded=1;whiteSpace=wrap;html=1;fillColor=#1C57CD;strokeColor=none;" parent="BZBJQn5B5M7l6MrAMs_o-43" vertex="1">
          <mxGeometry width="309" height="39" as="geometry" />
        </mxCell>
        <mxCell id="cKbgiC5qh_IXnBO1eU4K-29" value="" style="sketch=0;outlineConnect=0;fontColor=#232F3E;gradientColor=none;fillColor=#FFFFFF;strokeColor=none;dashed=0;verticalLabelPosition=bottom;verticalAlign=top;align=center;html=1;fontSize=12;fontStyle=0;aspect=fixed;pointerEvents=1;shape=mxgraph.aws4.gear;rounded=1;" parent="BZBJQn5B5M7l6MrAMs_o-43" vertex="1">
          <mxGeometry x="280" y="11" width="17" height="17" as="geometry" />
        </mxCell>
        <mxCell id="cKbgiC5qh_IXnBO1eU4K-30" value="Обновить статус заявки на апелляцию" style="text;html=1;align=center;verticalAlign=middle;whiteSpace=wrap;rounded=1;fontSize=13;fontColor=#FFFFFF;strokeColor=none;" parent="BZBJQn5B5M7l6MrAMs_o-43" vertex="1">
          <mxGeometry x="3" y="4.5" width="250" height="30" as="geometry" />
        </mxCell>
        <mxCell id="BZBJQn5B5M7l6MrAMs_o-44" value="" style="group" parent="1" vertex="1" connectable="0">
          <mxGeometry x="113" y="331" width="309" height="39" as="geometry" />
        </mxCell>
        <mxCell id="cKbgiC5qh_IXnBO1eU4K-25" value="" style="rounded=1;whiteSpace=wrap;html=1;fillColor=#1C57CD;strokeColor=none;" parent="BZBJQn5B5M7l6MrAMs_o-44" vertex="1">
          <mxGeometry width="309" height="39" as="geometry" />
        </mxCell>
        <mxCell id="cKbgiC5qh_IXnBO1eU4K-26" value="" style="sketch=0;outlineConnect=0;fontColor=#232F3E;gradientColor=none;fillColor=#FFFFFF;strokeColor=none;dashed=0;verticalLabelPosition=bottom;verticalAlign=top;align=center;html=1;fontSize=12;fontStyle=0;aspect=fixed;pointerEvents=1;shape=mxgraph.aws4.gear;rounded=1;" parent="BZBJQn5B5M7l6MrAMs_o-44" vertex="1">
          <mxGeometry x="280" y="11" width="17" height="17" as="geometry" />
        </mxCell>
        <mxCell id="cKbgiC5qh_IXnBO1eU4K-27" value="Регистрация заявки на апелляцию" style="text;html=1;align=center;verticalAlign=middle;whiteSpace=wrap;rounded=1;fontSize=13;fontColor=#FFFFFF;strokeColor=none;" parent="BZBJQn5B5M7l6MrAMs_o-44" vertex="1">
          <mxGeometry x="1" y="4.5" width="227" height="30" as="geometry" />
        </mxCell>
        <mxCell id="BZBJQn5B5M7l6MrAMs_o-45" value="" style="group" parent="1" vertex="1" connectable="0">
          <mxGeometry x="113" y="284" width="309" height="39" as="geometry" />
        </mxCell>
        <mxCell id="cKbgiC5qh_IXnBO1eU4K-22" value="" style="rounded=1;whiteSpace=wrap;html=1;fillColor=#1C57CD;strokeColor=none;" parent="BZBJQn5B5M7l6MrAMs_o-45" vertex="1">
          <mxGeometry width="309" height="39" as="geometry" />
        </mxCell>
        <mxCell id="cKbgiC5qh_IXnBO1eU4K-23" value="" style="sketch=0;outlineConnect=0;fontColor=#232F3E;gradientColor=none;fillColor=#FFFFFF;strokeColor=none;dashed=0;verticalLabelPosition=bottom;verticalAlign=top;align=center;html=1;fontSize=12;fontStyle=0;aspect=fixed;pointerEvents=1;shape=mxgraph.aws4.gear;rounded=1;" parent="BZBJQn5B5M7l6MrAMs_o-45" vertex="1">
          <mxGeometry x="280" y="11" width="17" height="17" as="geometry" />
        </mxCell>
        <mxCell id="cKbgiC5qh_IXnBO1eU4K-24" value="Создать заявку на апелляцию&amp;nbsp;" style="text;html=1;align=center;verticalAlign=middle;whiteSpace=wrap;rounded=1;fontSize=13;fontColor=#FFFFFF;strokeColor=none;" parent="BZBJQn5B5M7l6MrAMs_o-45" vertex="1">
          <mxGeometry x="4" y="4.5" width="202" height="30" as="geometry" />
        </mxCell>
        <mxCell id="Tz6aEU4ManMyac2rpAqn-7" value="&lt;p style=&quot;margin: 0px 0px 0px 13px; text-indent: -13px; font-variant-numeric: normal; font-variant-east-asian: normal; font-variant-alternates: normal; font-kerning: auto; font-optical-sizing: auto; font-feature-settings: normal; font-variation-settings: normal; font-variant-position: normal; font-stretch: normal; font-size: 14px; line-height: normal; color: rgb(14, 14, 14); text-align: start;&quot; class=&quot;p1&quot;&gt;&lt;font face=&quot;Times New Roman&quot;&gt;Заявка на аукцион.ID&lt;/font&gt;&lt;/p&gt;" style="rounded=1;whiteSpace=wrap;html=1;fillColor=#b1ddf0;strokeColor=#10739e;" parent="1" vertex="1">
          <mxGeometry x="1909" y="685" width="151" height="21" as="geometry" />
        </mxCell>
        <mxCell id="cKbgiC5qh_IXnBO1eU4K-45" value="&lt;p style=&quot;margin: 0px 0px 0px 13px; text-indent: -13px; font-variant-numeric: normal; font-variant-east-asian: normal; font-variant-alternates: normal; font-kerning: auto; font-optical-sizing: auto; font-feature-settings: normal; font-variation-settings: normal; font-variant-position: normal; font-stretch: normal; line-height: normal; color: rgb(14, 14, 14); text-align: start;&quot; class=&quot;p1&quot;&gt;&lt;font style=&quot;font-size: 14px;&quot; face=&quot;Times New Roman&quot;&gt;Заявка на регистрацию&lt;/font&gt;&lt;/p&gt;" style="rounded=1;whiteSpace=wrap;html=1;fillColor=#b1ddf0;strokeColor=#10739e;" parent="1" vertex="1">
          <mxGeometry x="259" y="607" width="150" height="21" as="geometry" />
        </mxCell>
        <mxCell id="MH2jeLUeA2oz_tTjhNLT-155" value="" style="rounded=1;whiteSpace=wrap;html=1;" vertex="1" parent="1">
          <mxGeometry x="1014" y="1215" width="349" height="371" as="geometry" />
        </mxCell>
        <mxCell id="MH2jeLUeA2oz_tTjhNLT-157" value="Отчёты" style="text;html=1;align=center;verticalAlign=middle;whiteSpace=wrap;rounded=0;" vertex="1" parent="1">
          <mxGeometry x="1089" y="1224" width="179" height="30" as="geometry" />
        </mxCell>
        <mxCell id="BZBJQn5B5M7l6MrAMs_o-34" value="" style="group" parent="1" vertex="1" connectable="0">
          <mxGeometry x="1033" y="1395" width="309" height="39" as="geometry" />
        </mxCell>
        <mxCell id="cKbgiC5qh_IXnBO1eU4K-7" value="" style="rounded=1;whiteSpace=wrap;html=1;fillColor=#1C57CD;strokeColor=none;" parent="BZBJQn5B5M7l6MrAMs_o-34" vertex="1">
          <mxGeometry width="309" height="39" as="geometry" />
        </mxCell>
        <mxCell id="cKbgiC5qh_IXnBO1eU4K-8" value="" style="sketch=0;outlineConnect=0;fontColor=#232F3E;gradientColor=none;fillColor=#FFFFFF;strokeColor=none;dashed=0;verticalLabelPosition=bottom;verticalAlign=top;align=center;html=1;fontSize=12;fontStyle=0;aspect=fixed;pointerEvents=1;shape=mxgraph.aws4.gear;rounded=1;" parent="BZBJQn5B5M7l6MrAMs_o-34" vertex="1">
          <mxGeometry x="286" y="11" width="17" height="17" as="geometry" />
        </mxCell>
        <mxCell id="cKbgiC5qh_IXnBO1eU4K-9" value="Фильтрация и сортировка результатов" style="text;html=1;align=center;verticalAlign=middle;whiteSpace=wrap;rounded=1;fontSize=13;fontColor=#FFFFFF;strokeColor=none;" parent="BZBJQn5B5M7l6MrAMs_o-34" vertex="1">
          <mxGeometry x="5" y="4.5" width="248" height="30" as="geometry" />
        </mxCell>
        <mxCell id="BZBJQn5B5M7l6MrAMs_o-35" value="" style="group" parent="1" vertex="1" connectable="0">
          <mxGeometry x="1032" y="1348" width="309" height="39" as="geometry" />
        </mxCell>
        <mxCell id="cKbgiC5qh_IXnBO1eU4K-10" value="" style="rounded=1;whiteSpace=wrap;html=1;fillColor=#1C57CD;strokeColor=none;" parent="BZBJQn5B5M7l6MrAMs_o-35" vertex="1">
          <mxGeometry width="309" height="39" as="geometry" />
        </mxCell>
        <mxCell id="cKbgiC5qh_IXnBO1eU4K-11" value="" style="sketch=0;outlineConnect=0;fontColor=#232F3E;gradientColor=none;fillColor=#FFFFFF;strokeColor=none;dashed=0;verticalLabelPosition=bottom;verticalAlign=top;align=center;html=1;fontSize=12;fontStyle=0;aspect=fixed;pointerEvents=1;shape=mxgraph.aws4.gear;rounded=1;" parent="BZBJQn5B5M7l6MrAMs_o-35" vertex="1">
          <mxGeometry x="286" y="11" width="17" height="17" as="geometry" />
        </mxCell>
        <mxCell id="cKbgiC5qh_IXnBO1eU4K-12" value="Сгенерировать отчёт по продажам" style="text;html=1;align=center;verticalAlign=middle;whiteSpace=wrap;rounded=1;fontSize=13;fontColor=#FFFFFF;strokeColor=none;" parent="BZBJQn5B5M7l6MrAMs_o-35" vertex="1">
          <mxGeometry x="6" y="4.5" width="226" height="30" as="geometry" />
        </mxCell>
        <mxCell id="BZBJQn5B5M7l6MrAMs_o-36" value="" style="group" parent="1" vertex="1" connectable="0">
          <mxGeometry x="1031" y="1305" width="309" height="39" as="geometry" />
        </mxCell>
        <mxCell id="cKbgiC5qh_IXnBO1eU4K-13" value="" style="rounded=1;whiteSpace=wrap;html=1;fillColor=#1C57CD;strokeColor=none;" parent="BZBJQn5B5M7l6MrAMs_o-36" vertex="1">
          <mxGeometry width="309" height="39" as="geometry" />
        </mxCell>
        <mxCell id="cKbgiC5qh_IXnBO1eU4K-14" value="" style="sketch=0;outlineConnect=0;fontColor=#232F3E;gradientColor=none;fillColor=#FFFFFF;strokeColor=none;dashed=0;verticalLabelPosition=bottom;verticalAlign=top;align=center;html=1;fontSize=12;fontStyle=0;aspect=fixed;pointerEvents=1;shape=mxgraph.aws4.gear;rounded=1;" parent="BZBJQn5B5M7l6MrAMs_o-36" vertex="1">
          <mxGeometry x="286" y="11" width="17" height="17" as="geometry" />
        </mxCell>
        <mxCell id="cKbgiC5qh_IXnBO1eU4K-15" value="Отобразить статистику заказов" style="text;html=1;align=center;verticalAlign=middle;whiteSpace=wrap;rounded=1;fontSize=13;fontColor=#FFFFFF;strokeColor=none;" parent="BZBJQn5B5M7l6MrAMs_o-36" vertex="1">
          <mxGeometry x="6.5" y="4.5" width="202" height="30" as="geometry" />
        </mxCell>
        <mxCell id="BZBJQn5B5M7l6MrAMs_o-39" value="" style="group" parent="1" vertex="1" connectable="0">
          <mxGeometry x="1031" y="1260" width="309" height="39" as="geometry" />
        </mxCell>
        <mxCell id="cKbgiC5qh_IXnBO1eU4K-16" value="" style="rounded=1;whiteSpace=wrap;html=1;fillColor=#1C57CD;strokeColor=none;" parent="BZBJQn5B5M7l6MrAMs_o-39" vertex="1">
          <mxGeometry width="309" height="39" as="geometry" />
        </mxCell>
        <mxCell id="cKbgiC5qh_IXnBO1eU4K-17" value="" style="sketch=0;outlineConnect=0;fontColor=#232F3E;gradientColor=none;fillColor=#FFFFFF;strokeColor=none;dashed=0;verticalLabelPosition=bottom;verticalAlign=top;align=center;html=1;fontSize=12;fontStyle=0;aspect=fixed;pointerEvents=1;shape=mxgraph.aws4.gear;rounded=1;" parent="BZBJQn5B5M7l6MrAMs_o-39" vertex="1">
          <mxGeometry x="280" y="11" width="17" height="17" as="geometry" />
        </mxCell>
        <mxCell id="cKbgiC5qh_IXnBO1eU4K-18" value="Сгенерировать отчёт активности пользователей" style="text;html=1;align=center;verticalAlign=middle;whiteSpace=wrap;rounded=1;fontSize=13;fontColor=#FFFFFF;strokeColor=none;" parent="BZBJQn5B5M7l6MrAMs_o-39" vertex="1">
          <mxGeometry x="5" y="6" width="215" height="30" as="geometry" />
        </mxCell>
        <mxCell id="MH2jeLUeA2oz_tTjhNLT-189" value="" style="rounded=1;whiteSpace=wrap;html=1;" vertex="1" parent="1">
          <mxGeometry x="2288" y="1113" width="349" height="564" as="geometry" />
        </mxCell>
        <mxCell id="MH2jeLUeA2oz_tTjhNLT-190" value="" style="shape=cylinder3;whiteSpace=wrap;html=1;boundedLbl=1;backgroundOutline=1;size=15;" vertex="1" parent="1">
          <mxGeometry x="2430" y="1533" width="180" height="126" as="geometry" />
        </mxCell>
        <mxCell id="MH2jeLUeA2oz_tTjhNLT-191" value="Платежи" style="text;html=1;align=center;verticalAlign=middle;whiteSpace=wrap;rounded=0;" vertex="1" parent="1">
          <mxGeometry x="2368" y="1116" width="179" height="30" as="geometry" />
        </mxCell>
        <mxCell id="MH2jeLUeA2oz_tTjhNLT-192" value="" style="group" vertex="1" connectable="0" parent="1">
          <mxGeometry x="2450" y="1522" width="151" height="49" as="geometry" />
        </mxCell>
        <mxCell id="MH2jeLUeA2oz_tTjhNLT-193" value="&lt;p style=&quot;margin: 0px 0px 0px 13px; text-indent: -13px; font-variant-numeric: normal; font-variant-east-asian: normal; font-variant-alternates: normal; font-kerning: auto; font-optical-sizing: auto; font-feature-settings: normal; font-variation-settings: normal; font-variant-position: normal; font-stretch: normal; font-size: 14px; line-height: normal; color: rgb(14, 14, 14); text-align: start;&quot; class=&quot;p1&quot;&gt;&lt;br&gt;&lt;/p&gt;" style="rounded=1;whiteSpace=wrap;html=1;fillColor=#FF77BF;strokeColor=none;arcSize=50;" vertex="1" parent="MH2jeLUeA2oz_tTjhNLT-192">
          <mxGeometry y="9" width="151" height="33" as="geometry" />
        </mxCell>
        <mxCell id="MH2jeLUeA2oz_tTjhNLT-194" value="&lt;font style=&quot;font-size: 18px;&quot;&gt;&lt;i&gt;PostgreSQL&lt;/i&gt;&lt;/font&gt;" style="text;html=1;align=center;verticalAlign=middle;whiteSpace=wrap;rounded=1;shadow=0;fontSize=23;fontStyle=1" vertex="1" parent="MH2jeLUeA2oz_tTjhNLT-192">
          <mxGeometry x="31" width="89" height="49" as="geometry" />
        </mxCell>
        <mxCell id="MH2jeLUeA2oz_tTjhNLT-195" style="edgeStyle=orthogonalEdgeStyle;rounded=0;orthogonalLoop=1;jettySize=auto;html=1;exitX=0.5;exitY=1;exitDx=0;exitDy=0;exitPerimeter=0;" edge="1" parent="1" source="MH2jeLUeA2oz_tTjhNLT-190" target="MH2jeLUeA2oz_tTjhNLT-190">
          <mxGeometry relative="1" as="geometry" />
        </mxCell>
        <mxCell id="BZBJQn5B5M7l6MrAMs_o-22" value="" style="group" parent="1" vertex="1" connectable="0">
          <mxGeometry x="2317" y="1470" width="309" height="39" as="geometry" />
        </mxCell>
        <mxCell id="Tz6aEU4ManMyac2rpAqn-106" value="" style="rounded=1;whiteSpace=wrap;html=1;fillColor=#1C57CD;strokeColor=none;" parent="BZBJQn5B5M7l6MrAMs_o-22" vertex="1">
          <mxGeometry width="309" height="39" as="geometry" />
        </mxCell>
        <mxCell id="Tz6aEU4ManMyac2rpAqn-107" value="" style="sketch=0;outlineConnect=0;fontColor=#232F3E;gradientColor=none;fillColor=#FFFFFF;strokeColor=none;dashed=0;verticalLabelPosition=bottom;verticalAlign=top;align=center;html=1;fontSize=12;fontStyle=0;aspect=fixed;pointerEvents=1;shape=mxgraph.aws4.gear;rounded=1;" parent="BZBJQn5B5M7l6MrAMs_o-22" vertex="1">
          <mxGeometry x="286" y="11" width="17" height="17" as="geometry" />
        </mxCell>
        <mxCell id="Tz6aEU4ManMyac2rpAqn-108" value="Определить способ оплаты" style="text;html=1;align=center;verticalAlign=middle;whiteSpace=wrap;rounded=1;fontSize=13;fontColor=#FFFFFF;strokeColor=none;" parent="BZBJQn5B5M7l6MrAMs_o-22" vertex="1">
          <mxGeometry x="7" y="4.5" width="173" height="30" as="geometry" />
        </mxCell>
        <mxCell id="BZBJQn5B5M7l6MrAMs_o-46" value="" style="group" parent="1" vertex="1" connectable="0">
          <mxGeometry x="2314" y="1424" width="309" height="39" as="geometry" />
        </mxCell>
        <mxCell id="Tz6aEU4ManMyac2rpAqn-130" value="" style="rounded=1;whiteSpace=wrap;html=1;fillColor=#1C57CD;strokeColor=none;" parent="BZBJQn5B5M7l6MrAMs_o-46" vertex="1">
          <mxGeometry width="309" height="39" as="geometry" />
        </mxCell>
        <mxCell id="Tz6aEU4ManMyac2rpAqn-131" value="" style="sketch=0;outlineConnect=0;fontColor=#232F3E;gradientColor=none;fillColor=#FFFFFF;strokeColor=none;dashed=0;verticalLabelPosition=bottom;verticalAlign=top;align=center;html=1;fontSize=12;fontStyle=0;aspect=fixed;pointerEvents=1;shape=mxgraph.aws4.gear;rounded=1;" parent="BZBJQn5B5M7l6MrAMs_o-46" vertex="1">
          <mxGeometry x="280" y="11" width="17" height="17" as="geometry" />
        </mxCell>
        <mxCell id="Tz6aEU4ManMyac2rpAqn-132" value="Предоставить статус операции" style="text;html=1;align=center;verticalAlign=middle;whiteSpace=wrap;rounded=1;fontSize=13;fontColor=#FFFFFF;strokeColor=none;" parent="BZBJQn5B5M7l6MrAMs_o-46" vertex="1">
          <mxGeometry y="4.5" width="207" height="30" as="geometry" />
        </mxCell>
        <mxCell id="BZBJQn5B5M7l6MrAMs_o-47" value="" style="group" parent="1" vertex="1" connectable="0">
          <mxGeometry x="2314" y="1374" width="309" height="39" as="geometry" />
        </mxCell>
        <mxCell id="Tz6aEU4ManMyac2rpAqn-127" value="" style="rounded=1;whiteSpace=wrap;html=1;fillColor=#1C57CD;strokeColor=none;" parent="BZBJQn5B5M7l6MrAMs_o-47" vertex="1">
          <mxGeometry width="309" height="39" as="geometry" />
        </mxCell>
        <mxCell id="Tz6aEU4ManMyac2rpAqn-128" value="" style="sketch=0;outlineConnect=0;fontColor=#232F3E;gradientColor=none;fillColor=#FFFFFF;strokeColor=none;dashed=0;verticalLabelPosition=bottom;verticalAlign=top;align=center;html=1;fontSize=12;fontStyle=0;aspect=fixed;pointerEvents=1;shape=mxgraph.aws4.gear;rounded=1;" parent="BZBJQn5B5M7l6MrAMs_o-47" vertex="1">
          <mxGeometry x="280" y="11" width="17" height="17" as="geometry" />
        </mxCell>
        <mxCell id="Tz6aEU4ManMyac2rpAqn-129" value="Запросить статус операции" style="text;html=1;align=center;verticalAlign=middle;whiteSpace=wrap;rounded=1;fontSize=13;fontColor=#FFFFFF;strokeColor=none;" parent="BZBJQn5B5M7l6MrAMs_o-47" vertex="1">
          <mxGeometry x="3" y="6" width="179" height="30" as="geometry" />
        </mxCell>
        <mxCell id="BZBJQn5B5M7l6MrAMs_o-48" value="" style="group" parent="1" vertex="1" connectable="0">
          <mxGeometry x="2317" y="1327" width="309" height="39" as="geometry" />
        </mxCell>
        <mxCell id="Tz6aEU4ManMyac2rpAqn-124" value="" style="rounded=1;whiteSpace=wrap;html=1;fillColor=#1C57CD;strokeColor=none;" parent="BZBJQn5B5M7l6MrAMs_o-48" vertex="1">
          <mxGeometry width="309" height="39" as="geometry" />
        </mxCell>
        <mxCell id="Tz6aEU4ManMyac2rpAqn-125" value="" style="sketch=0;outlineConnect=0;fontColor=#232F3E;gradientColor=none;fillColor=#FFFFFF;strokeColor=none;dashed=0;verticalLabelPosition=bottom;verticalAlign=top;align=center;html=1;fontSize=12;fontStyle=0;aspect=fixed;pointerEvents=1;shape=mxgraph.aws4.gear;rounded=1;" parent="BZBJQn5B5M7l6MrAMs_o-48" vertex="1">
          <mxGeometry x="280" y="11" width="17" height="17" as="geometry" />
        </mxCell>
        <mxCell id="Tz6aEU4ManMyac2rpAqn-126" value="Инициировать отмену транзакции" style="text;html=1;align=center;verticalAlign=middle;whiteSpace=wrap;rounded=1;fontSize=13;fontColor=#FFFFFF;strokeColor=none;" parent="BZBJQn5B5M7l6MrAMs_o-48" vertex="1">
          <mxGeometry x="2" y="4" width="223" height="30" as="geometry" />
        </mxCell>
        <mxCell id="BZBJQn5B5M7l6MrAMs_o-49" value="" style="group" parent="1" vertex="1" connectable="0">
          <mxGeometry x="2314" y="1281" width="309" height="39" as="geometry" />
        </mxCell>
        <mxCell id="Tz6aEU4ManMyac2rpAqn-121" value="" style="rounded=1;whiteSpace=wrap;html=1;fillColor=#1C57CD;strokeColor=none;" parent="BZBJQn5B5M7l6MrAMs_o-49" vertex="1">
          <mxGeometry width="309" height="39" as="geometry" />
        </mxCell>
        <mxCell id="Tz6aEU4ManMyac2rpAqn-122" value="" style="sketch=0;outlineConnect=0;fontColor=#232F3E;gradientColor=none;fillColor=#FFFFFF;strokeColor=none;dashed=0;verticalLabelPosition=bottom;verticalAlign=top;align=center;html=1;fontSize=12;fontStyle=0;aspect=fixed;pointerEvents=1;shape=mxgraph.aws4.gear;rounded=1;" parent="BZBJQn5B5M7l6MrAMs_o-49" vertex="1">
          <mxGeometry x="280" y="11" width="17" height="17" as="geometry" />
        </mxCell>
        <mxCell id="Tz6aEU4ManMyac2rpAqn-123" value="Предоставить список и статус операций" style="text;html=1;align=center;verticalAlign=middle;whiteSpace=wrap;rounded=1;fontSize=13;fontColor=#FFFFFF;strokeColor=none;" parent="BZBJQn5B5M7l6MrAMs_o-49" vertex="1">
          <mxGeometry y="4.5" width="263" height="30" as="geometry" />
        </mxCell>
        <mxCell id="BZBJQn5B5M7l6MrAMs_o-50" value="" style="group" parent="1" vertex="1" connectable="0">
          <mxGeometry x="2307" y="1235" width="316" height="39" as="geometry" />
        </mxCell>
        <mxCell id="Tz6aEU4ManMyac2rpAqn-118" value="" style="rounded=1;whiteSpace=wrap;html=1;fillColor=#1C57CD;strokeColor=none;" parent="BZBJQn5B5M7l6MrAMs_o-50" vertex="1">
          <mxGeometry x="7" width="309" height="39" as="geometry" />
        </mxCell>
        <mxCell id="Tz6aEU4ManMyac2rpAqn-119" value="" style="sketch=0;outlineConnect=0;fontColor=#232F3E;gradientColor=none;fillColor=#FFFFFF;strokeColor=none;dashed=0;verticalLabelPosition=bottom;verticalAlign=top;align=center;html=1;fontSize=12;fontStyle=0;aspect=fixed;pointerEvents=1;shape=mxgraph.aws4.gear;rounded=1;" parent="BZBJQn5B5M7l6MrAMs_o-50" vertex="1">
          <mxGeometry x="287" y="11" width="17" height="17" as="geometry" />
        </mxCell>
        <mxCell id="Tz6aEU4ManMyac2rpAqn-120" value="Авторизация платёжной операции" style="text;html=1;align=center;verticalAlign=middle;whiteSpace=wrap;rounded=1;fontSize=13;fontColor=#FFFFFF;strokeColor=none;" parent="BZBJQn5B5M7l6MrAMs_o-50" vertex="1">
          <mxGeometry y="4.5" width="243" height="30" as="geometry" />
        </mxCell>
        <mxCell id="BZBJQn5B5M7l6MrAMs_o-51" value="" style="group" parent="1" vertex="1" connectable="0">
          <mxGeometry x="2314" y="1191" width="309" height="39" as="geometry" />
        </mxCell>
        <mxCell id="Tz6aEU4ManMyac2rpAqn-115" value="" style="rounded=1;whiteSpace=wrap;html=1;fillColor=#1C57CD;strokeColor=none;" parent="BZBJQn5B5M7l6MrAMs_o-51" vertex="1">
          <mxGeometry width="309" height="39" as="geometry" />
        </mxCell>
        <mxCell id="Tz6aEU4ManMyac2rpAqn-116" value="" style="sketch=0;outlineConnect=0;fontColor=#232F3E;gradientColor=none;fillColor=#FFFFFF;strokeColor=none;dashed=0;verticalLabelPosition=bottom;verticalAlign=top;align=center;html=1;fontSize=12;fontStyle=0;aspect=fixed;pointerEvents=1;shape=mxgraph.aws4.gear;rounded=1;" parent="BZBJQn5B5M7l6MrAMs_o-51" vertex="1">
          <mxGeometry x="280" y="11" width="17" height="17" as="geometry" />
        </mxCell>
        <mxCell id="Tz6aEU4ManMyac2rpAqn-117" value="Учёт платёжной операции" style="text;html=1;align=center;verticalAlign=middle;whiteSpace=wrap;rounded=1;fontSize=13;fontColor=#FFFFFF;strokeColor=none;" parent="BZBJQn5B5M7l6MrAMs_o-51" vertex="1">
          <mxGeometry x="5" y="4.5" width="173" height="30" as="geometry" />
        </mxCell>
        <mxCell id="BZBJQn5B5M7l6MrAMs_o-52" value="" style="group" parent="1" vertex="1" connectable="0">
          <mxGeometry x="2317.5" y="1146" width="309" height="39" as="geometry" />
        </mxCell>
        <mxCell id="Tz6aEU4ManMyac2rpAqn-109" value="" style="rounded=1;whiteSpace=wrap;html=1;fillColor=#1C57CD;strokeColor=none;" parent="BZBJQn5B5M7l6MrAMs_o-52" vertex="1">
          <mxGeometry x="-3.5" width="309" height="39" as="geometry" />
        </mxCell>
        <mxCell id="Tz6aEU4ManMyac2rpAqn-110" value="" style="sketch=0;outlineConnect=0;fontColor=#232F3E;gradientColor=none;fillColor=#FFFFFF;strokeColor=none;dashed=0;verticalLabelPosition=bottom;verticalAlign=top;align=center;html=1;fontSize=12;fontStyle=0;aspect=fixed;pointerEvents=1;shape=mxgraph.aws4.gear;rounded=1;" parent="BZBJQn5B5M7l6MrAMs_o-52" vertex="1">
          <mxGeometry x="280" y="11" width="17" height="17" as="geometry" />
        </mxCell>
        <mxCell id="Tz6aEU4ManMyac2rpAqn-111" value="Инициировать платёжную операцию" style="text;html=1;align=center;verticalAlign=middle;whiteSpace=wrap;rounded=1;fontSize=13;fontColor=#FFFFFF;strokeColor=none;" parent="BZBJQn5B5M7l6MrAMs_o-52" vertex="1">
          <mxGeometry y="4.5" width="243" height="30" as="geometry" />
        </mxCell>
        <mxCell id="cKbgiC5qh_IXnBO1eU4K-150" value="&lt;p style=&quot;margin: 0px 0px 0px 13px; text-indent: -13px; font-variant-numeric: normal; font-variant-east-asian: normal; font-variant-alternates: normal; font-kerning: auto; font-optical-sizing: auto; font-feature-settings: normal; font-variation-settings: normal; font-variant-position: normal; font-stretch: normal; line-height: normal; text-align: start;&quot; class=&quot;p1&quot;&gt;&lt;span style=&quot;text-align: center; text-indent: 0px;&quot;&gt;&lt;font style=&quot;font-size: 14px;&quot; face=&quot;Times New Roman&quot;&gt;[Транзакция.ID]&lt;/font&gt;&lt;/span&gt;&lt;br&gt;&lt;/p&gt;" style="rounded=1;whiteSpace=wrap;html=1;fillColor=#B8B8B8;strokeColor=#FFD966;" parent="1" vertex="1">
          <mxGeometry x="2447" y="1589" width="104" height="21" as="geometry" />
        </mxCell>
        <mxCell id="cKbgiC5qh_IXnBO1eU4K-151" value="&lt;p style=&quot;margin: 0px 0px 0px 13px; text-indent: -13px; font-variant-numeric: normal; font-variant-east-asian: normal; font-variant-alternates: normal; font-kerning: auto; font-optical-sizing: auto; font-feature-settings: normal; font-variation-settings: normal; font-variant-position: normal; font-stretch: normal; line-height: normal; text-align: start;&quot; class=&quot;p1&quot;&gt;&lt;span style=&quot;text-align: center; text-indent: 0px;&quot;&gt;&lt;font style=&quot;font-size: 14px;&quot; face=&quot;Times New Roman&quot;&gt;[Транзакция.Статус]&lt;/font&gt;&lt;/span&gt;&lt;br&gt;&lt;/p&gt;" style="rounded=1;whiteSpace=wrap;html=1;fillColor=#B8B8B8;strokeColor=#FFD966;" parent="1" vertex="1">
          <mxGeometry x="2445" y="1619" width="125" height="21" as="geometry" />
        </mxCell>
        <mxCell id="MH2jeLUeA2oz_tTjhNLT-222" value="" style="rounded=1;whiteSpace=wrap;html=1;" vertex="1" parent="1">
          <mxGeometry x="1382" y="229" width="349" height="367" as="geometry" />
        </mxCell>
        <mxCell id="MH2jeLUeA2oz_tTjhNLT-223" value="" style="shape=cylinder3;whiteSpace=wrap;html=1;boundedLbl=1;backgroundOutline=1;size=15;" vertex="1" parent="1">
          <mxGeometry x="1526" y="451" width="180" height="126" as="geometry" />
        </mxCell>
        <mxCell id="MH2jeLUeA2oz_tTjhNLT-224" value="Товар" style="text;html=1;align=center;verticalAlign=middle;whiteSpace=wrap;rounded=0;" vertex="1" parent="1">
          <mxGeometry x="1462" y="232" width="179" height="30" as="geometry" />
        </mxCell>
        <mxCell id="MH2jeLUeA2oz_tTjhNLT-225" value="" style="group" vertex="1" connectable="0" parent="1">
          <mxGeometry x="1546" y="440" width="151" height="49" as="geometry" />
        </mxCell>
        <mxCell id="MH2jeLUeA2oz_tTjhNLT-226" value="&lt;p style=&quot;margin: 0px 0px 0px 13px; text-indent: -13px; font-variant-numeric: normal; font-variant-east-asian: normal; font-variant-alternates: normal; font-kerning: auto; font-optical-sizing: auto; font-feature-settings: normal; font-variation-settings: normal; font-variant-position: normal; font-stretch: normal; font-size: 14px; line-height: normal; color: rgb(14, 14, 14); text-align: start;&quot; class=&quot;p1&quot;&gt;&lt;br&gt;&lt;/p&gt;" style="rounded=1;whiteSpace=wrap;html=1;fillColor=#FF77BF;strokeColor=none;arcSize=50;" vertex="1" parent="MH2jeLUeA2oz_tTjhNLT-225">
          <mxGeometry y="9" width="151" height="33" as="geometry" />
        </mxCell>
        <mxCell id="MH2jeLUeA2oz_tTjhNLT-227" value="&lt;font style=&quot;font-size: 18px;&quot;&gt;&lt;i&gt;PostgreSQL&lt;/i&gt;&lt;/font&gt;" style="text;html=1;align=center;verticalAlign=middle;whiteSpace=wrap;rounded=1;shadow=0;fontSize=23;fontStyle=1" vertex="1" parent="MH2jeLUeA2oz_tTjhNLT-225">
          <mxGeometry x="31" width="89" height="49" as="geometry" />
        </mxCell>
        <mxCell id="MH2jeLUeA2oz_tTjhNLT-228" style="edgeStyle=orthogonalEdgeStyle;rounded=0;orthogonalLoop=1;jettySize=auto;html=1;exitX=0.5;exitY=1;exitDx=0;exitDy=0;exitPerimeter=0;" edge="1" parent="1" source="MH2jeLUeA2oz_tTjhNLT-223" target="MH2jeLUeA2oz_tTjhNLT-223">
          <mxGeometry relative="1" as="geometry" />
        </mxCell>
        <mxCell id="MH2jeLUeA2oz_tTjhNLT-229" value="Разместить услугу" style="text;html=1;align=center;verticalAlign=middle;whiteSpace=wrap;rounded=1;fontSize=13;fontColor=#FFFFFF;" vertex="1" parent="1">
          <mxGeometry x="1412" y="276.5" width="132" height="30" as="geometry" />
        </mxCell>
        <mxCell id="BZBJQn5B5M7l6MrAMs_o-13" value="" style="group" parent="1" vertex="1" connectable="0">
          <mxGeometry x="1404" y="306" width="309" height="39" as="geometry" />
        </mxCell>
        <mxCell id="Tz6aEU4ManMyac2rpAqn-69" value="" style="rounded=1;whiteSpace=wrap;html=1;fillColor=#1C57CD;strokeColor=none;" parent="BZBJQn5B5M7l6MrAMs_o-13" vertex="1">
          <mxGeometry width="309" height="39" as="geometry" />
        </mxCell>
        <mxCell id="Tz6aEU4ManMyac2rpAqn-70" value="" style="sketch=0;outlineConnect=0;fontColor=#232F3E;gradientColor=none;fillColor=default;strokeColor=none;dashed=0;verticalLabelPosition=bottom;verticalAlign=top;align=center;html=1;fontSize=12;fontStyle=0;aspect=fixed;pointerEvents=1;shape=mxgraph.aws4.gear;rounded=1;" parent="BZBJQn5B5M7l6MrAMs_o-13" vertex="1">
          <mxGeometry x="282" y="11" width="17" height="17" as="geometry" />
        </mxCell>
        <mxCell id="Tz6aEU4ManMyac2rpAqn-71" value="Удалить товар пользователя" style="text;html=1;align=center;verticalAlign=middle;whiteSpace=wrap;rounded=1;fontSize=13;fontColor=#FFFFFF;strokeColor=none;" parent="BZBJQn5B5M7l6MrAMs_o-13" vertex="1">
          <mxGeometry x="2" y="4.5" width="188" height="30" as="geometry" />
        </mxCell>
        <mxCell id="BZBJQn5B5M7l6MrAMs_o-23" value="" style="group" parent="1" vertex="1" connectable="0">
          <mxGeometry x="1401" y="259" width="309" height="39" as="geometry" />
        </mxCell>
        <mxCell id="Tz6aEU4ManMyac2rpAqn-54" value="" style="rounded=1;whiteSpace=wrap;html=1;fillColor=#1C57CD;strokeColor=none;" parent="BZBJQn5B5M7l6MrAMs_o-23" vertex="1">
          <mxGeometry width="309" height="39" as="geometry" />
        </mxCell>
        <mxCell id="Tz6aEU4ManMyac2rpAqn-55" value="" style="sketch=0;outlineConnect=0;fontColor=#232F3E;gradientColor=none;fillColor=#FFFFFF;strokeColor=none;dashed=0;verticalLabelPosition=bottom;verticalAlign=top;align=center;html=1;fontSize=12;fontStyle=0;aspect=fixed;pointerEvents=1;shape=mxgraph.aws4.gear;rounded=1;" parent="BZBJQn5B5M7l6MrAMs_o-23" vertex="1">
          <mxGeometry x="286" y="11" width="17" height="17" as="geometry" />
        </mxCell>
        <mxCell id="Tz6aEU4ManMyac2rpAqn-56" value="Добавить товар в профиль пользователя" style="text;html=1;align=center;verticalAlign=middle;whiteSpace=wrap;rounded=1;fontSize=13;fontColor=#FFFFFF;strokeColor=none;" parent="BZBJQn5B5M7l6MrAMs_o-23" vertex="1">
          <mxGeometry x="8" y="4" width="262" height="30" as="geometry" />
        </mxCell>
        <mxCell id="BZBJQn5B5M7l6MrAMs_o-25" value="" style="group" parent="1" vertex="1" connectable="0">
          <mxGeometry x="1401" y="355" width="309" height="39" as="geometry" />
        </mxCell>
        <mxCell id="Tz6aEU4ManMyac2rpAqn-60" value="" style="rounded=1;whiteSpace=wrap;html=1;fillColor=#1C57CD;strokeColor=none;" parent="BZBJQn5B5M7l6MrAMs_o-25" vertex="1">
          <mxGeometry width="309" height="39" as="geometry" />
        </mxCell>
        <mxCell id="Tz6aEU4ManMyac2rpAqn-61" value="" style="sketch=0;outlineConnect=0;fontColor=#232F3E;gradientColor=none;fillColor=#FFFFFF;strokeColor=none;dashed=0;verticalLabelPosition=bottom;verticalAlign=top;align=center;html=1;fontSize=12;fontStyle=0;aspect=fixed;pointerEvents=1;shape=mxgraph.aws4.gear;rounded=1;" parent="BZBJQn5B5M7l6MrAMs_o-25" vertex="1">
          <mxGeometry x="286" y="11" width="17" height="17" as="geometry" />
        </mxCell>
        <mxCell id="Tz6aEU4ManMyac2rpAqn-62" value="Изменить товар пользователя" style="text;html=1;align=center;verticalAlign=middle;whiteSpace=wrap;rounded=1;fontSize=13;fontColor=#FFFFFF;strokeColor=none;" parent="BZBJQn5B5M7l6MrAMs_o-25" vertex="1">
          <mxGeometry x="7" y="3" width="195" height="30" as="geometry" />
        </mxCell>
        <mxCell id="BZBJQn5B5M7l6MrAMs_o-32" value="" style="group" parent="1" vertex="1" connectable="0">
          <mxGeometry x="1402" y="397" width="309" height="39" as="geometry" />
        </mxCell>
        <mxCell id="cKbgiC5qh_IXnBO1eU4K-1" value="" style="rounded=1;whiteSpace=wrap;html=1;fillColor=#1C57CD;strokeColor=none;" parent="BZBJQn5B5M7l6MrAMs_o-32" vertex="1">
          <mxGeometry width="309" height="39" as="geometry" />
        </mxCell>
        <mxCell id="cKbgiC5qh_IXnBO1eU4K-2" value="" style="sketch=0;outlineConnect=0;fontColor=#232F3E;gradientColor=none;fillColor=#FFFFFF;strokeColor=none;dashed=0;verticalLabelPosition=bottom;verticalAlign=top;align=center;html=1;fontSize=12;fontStyle=0;aspect=fixed;pointerEvents=1;shape=mxgraph.aws4.gear;rounded=1;" parent="BZBJQn5B5M7l6MrAMs_o-32" vertex="1">
          <mxGeometry x="286" y="11" width="17" height="17" as="geometry" />
        </mxCell>
        <mxCell id="cKbgiC5qh_IXnBO1eU4K-3" value="Поиск товаров" style="text;html=1;align=center;verticalAlign=middle;whiteSpace=wrap;rounded=1;fontSize=13;fontColor=#FFFFFF;strokeColor=none;" parent="BZBJQn5B5M7l6MrAMs_o-32" vertex="1">
          <mxGeometry x="3" y="4.5" width="99" height="30" as="geometry" />
        </mxCell>
        <mxCell id="cKbgiC5qh_IXnBO1eU4K-87" value="&lt;p style=&quot;margin: 0px 0px 0px 13px; text-indent: -13px; font-variant-numeric: normal; font-variant-east-asian: normal; font-variant-alternates: normal; font-kerning: auto; font-optical-sizing: auto; font-feature-settings: normal; font-variation-settings: normal; font-variant-position: normal; font-stretch: normal; font-size: 14px; line-height: normal; color: rgb(14, 14, 14); text-align: start;&quot; class=&quot;p1&quot;&gt;&lt;font face=&quot;Times New Roman&quot;&gt;Товар.ID&lt;/font&gt;&lt;/p&gt;" style="rounded=1;whiteSpace=wrap;html=1;fillColor=#b1ddf0;strokeColor=#10739e;" parent="1" vertex="1">
          <mxGeometry x="1548" y="492" width="78" height="21" as="geometry" />
        </mxCell>
        <mxCell id="cKbgiC5qh_IXnBO1eU4K-88" value="&lt;p style=&quot;margin: 0px 0px 0px 13px; text-indent: -13px; font-variant-numeric: normal; font-variant-east-asian: normal; font-variant-alternates: normal; font-kerning: auto; font-optical-sizing: auto; font-feature-settings: normal; font-variation-settings: normal; font-variant-position: normal; font-stretch: normal; font-size: 14px; line-height: normal; color: rgb(14, 14, 14); text-align: start;&quot; class=&quot;p1&quot;&gt;&lt;font face=&quot;Times New Roman&quot;&gt;Товар.Название&lt;/font&gt;&lt;/p&gt;" style="rounded=1;whiteSpace=wrap;html=1;fillColor=#b1ddf0;strokeColor=#10739e;" parent="1" vertex="1">
          <mxGeometry x="1543" y="550" width="111" height="21" as="geometry" />
        </mxCell>
        <mxCell id="cKbgiC5qh_IXnBO1eU4K-89" value="&lt;p style=&quot;margin: 0px 0px 0px 13px; text-indent: -13px; font-variant-numeric: normal; font-variant-east-asian: normal; font-variant-alternates: normal; font-kerning: auto; font-optical-sizing: auto; font-feature-settings: normal; font-variation-settings: normal; font-variant-position: normal; font-stretch: normal; font-size: 14px; line-height: normal; color: rgb(14, 14, 14); text-align: start;&quot; class=&quot;p1&quot;&gt;&lt;font face=&quot;Times New Roman&quot;&gt;Товар.Описание&lt;/font&gt;&lt;/p&gt;" style="rounded=1;whiteSpace=wrap;html=1;fillColor=#b1ddf0;strokeColor=#10739e;" parent="1" vertex="1">
          <mxGeometry x="1547" y="518" width="107" height="21" as="geometry" />
        </mxCell>
        <mxCell id="MH2jeLUeA2oz_tTjhNLT-310" value="" style="rounded=1;whiteSpace=wrap;html=1;" vertex="1" parent="1">
          <mxGeometry x="510" y="1204" width="349" height="367" as="geometry" />
        </mxCell>
        <mxCell id="MH2jeLUeA2oz_tTjhNLT-311" value="" style="shape=cylinder3;whiteSpace=wrap;html=1;boundedLbl=1;backgroundOutline=1;size=15;" vertex="1" parent="1">
          <mxGeometry x="649" y="1384" width="180" height="126" as="geometry" />
        </mxCell>
        <mxCell id="MH2jeLUeA2oz_tTjhNLT-312" value="Нотификации" style="text;html=1;align=center;verticalAlign=middle;whiteSpace=wrap;rounded=0;" vertex="1" parent="1">
          <mxGeometry x="590" y="1207" width="179" height="30" as="geometry" />
        </mxCell>
        <mxCell id="MH2jeLUeA2oz_tTjhNLT-313" value="" style="group" vertex="1" connectable="0" parent="1">
          <mxGeometry x="669" y="1373" width="151" height="49" as="geometry" />
        </mxCell>
        <mxCell id="MH2jeLUeA2oz_tTjhNLT-314" value="&lt;p style=&quot;margin: 0px 0px 0px 13px; text-indent: -13px; font-variant-numeric: normal; font-variant-east-asian: normal; font-variant-alternates: normal; font-kerning: auto; font-optical-sizing: auto; font-feature-settings: normal; font-variation-settings: normal; font-variant-position: normal; font-stretch: normal; font-size: 14px; line-height: normal; color: rgb(14, 14, 14); text-align: start;&quot; class=&quot;p1&quot;&gt;&lt;br&gt;&lt;/p&gt;" style="rounded=1;whiteSpace=wrap;html=1;fillColor=#FF77BF;strokeColor=none;arcSize=50;" vertex="1" parent="MH2jeLUeA2oz_tTjhNLT-313">
          <mxGeometry y="9" width="151" height="33" as="geometry" />
        </mxCell>
        <mxCell id="MH2jeLUeA2oz_tTjhNLT-315" value="&lt;font style=&quot;font-size: 18px;&quot;&gt;&lt;i&gt;PostgreSQL&lt;/i&gt;&lt;/font&gt;" style="text;html=1;align=center;verticalAlign=middle;whiteSpace=wrap;rounded=1;shadow=0;fontSize=23;fontStyle=1" vertex="1" parent="MH2jeLUeA2oz_tTjhNLT-313">
          <mxGeometry x="31" width="89" height="49" as="geometry" />
        </mxCell>
        <mxCell id="MH2jeLUeA2oz_tTjhNLT-316" style="edgeStyle=orthogonalEdgeStyle;rounded=0;orthogonalLoop=1;jettySize=auto;html=1;exitX=0.5;exitY=1;exitDx=0;exitDy=0;exitPerimeter=0;" edge="1" parent="1" source="MH2jeLUeA2oz_tTjhNLT-311" target="MH2jeLUeA2oz_tTjhNLT-311">
          <mxGeometry relative="1" as="geometry" />
        </mxCell>
        <mxCell id="MH2jeLUeA2oz_tTjhNLT-334" value="&lt;p style=&quot;margin: 0px 0px 0px 13px; text-indent: -13px; font-variant-numeric: normal; font-variant-east-asian: normal; font-variant-alternates: normal; font-kerning: auto; font-optical-sizing: auto; font-feature-settings: normal; font-variation-settings: normal; font-variant-position: normal; font-stretch: normal; font-size: 14px; line-height: normal; color: rgb(14, 14, 14); text-align: start;&quot; class=&quot;p1&quot;&gt;&lt;font face=&quot;Times New Roman&quot;&gt;Нотификация.ID&lt;/font&gt;&lt;/p&gt;" style="rounded=1;whiteSpace=wrap;html=1;fillColor=#b1ddf0;strokeColor=#10739e;" vertex="1" parent="1">
          <mxGeometry x="671" y="1425" width="112" height="21" as="geometry" />
        </mxCell>
        <mxCell id="BZBJQn5B5M7l6MrAMs_o-10" value="" style="group" parent="1" vertex="1" connectable="0">
          <mxGeometry x="527" y="1236" width="309" height="39" as="geometry" />
        </mxCell>
        <mxCell id="Tz6aEU4ManMyac2rpAqn-72" value="" style="rounded=1;whiteSpace=wrap;html=1;fillColor=#1C57CD;strokeColor=none;" parent="BZBJQn5B5M7l6MrAMs_o-10" vertex="1">
          <mxGeometry width="309" height="39" as="geometry" />
        </mxCell>
        <mxCell id="Tz6aEU4ManMyac2rpAqn-73" value="" style="sketch=0;outlineConnect=0;fontColor=#232F3E;gradientColor=none;fillColor=default;strokeColor=none;dashed=0;verticalLabelPosition=bottom;verticalAlign=top;align=center;html=1;fontSize=12;fontStyle=0;aspect=fixed;pointerEvents=1;shape=mxgraph.aws4.gear;rounded=1;" parent="BZBJQn5B5M7l6MrAMs_o-10" vertex="1">
          <mxGeometry x="280" y="11" width="17" height="17" as="geometry" />
        </mxCell>
        <mxCell id="Tz6aEU4ManMyac2rpAqn-74" value="Нотификация нового пользователя" style="text;html=1;align=center;verticalAlign=middle;whiteSpace=wrap;rounded=1;fontSize=13;fontColor=#FFFFFF;strokeColor=none;" parent="BZBJQn5B5M7l6MrAMs_o-10" vertex="1">
          <mxGeometry x="3" y="4.5" width="227" height="30" as="geometry" />
        </mxCell>
        <mxCell id="BZBJQn5B5M7l6MrAMs_o-21" value="" style="group" parent="1" vertex="1" connectable="0">
          <mxGeometry x="525" y="1285" width="309" height="39" as="geometry" />
        </mxCell>
        <mxCell id="Tz6aEU4ManMyac2rpAqn-96" value="" style="rounded=1;whiteSpace=wrap;html=1;fillColor=#1C57CD;strokeColor=none;" parent="BZBJQn5B5M7l6MrAMs_o-21" vertex="1">
          <mxGeometry width="309" height="39" as="geometry" />
        </mxCell>
        <mxCell id="Tz6aEU4ManMyac2rpAqn-97" value="" style="sketch=0;outlineConnect=0;fontColor=#232F3E;gradientColor=none;fillColor=default;strokeColor=none;dashed=0;verticalLabelPosition=bottom;verticalAlign=top;align=center;html=1;fontSize=12;fontStyle=0;aspect=fixed;pointerEvents=1;shape=mxgraph.aws4.gear;rounded=1;" parent="BZBJQn5B5M7l6MrAMs_o-21" vertex="1">
          <mxGeometry x="282" y="11" width="17" height="17" as="geometry" />
        </mxCell>
        <mxCell id="Tz6aEU4ManMyac2rpAqn-98" value="Нотификация об изменении состояния заказа" style="text;html=1;align=center;verticalAlign=middle;whiteSpace=wrap;rounded=1;fontSize=13;fontColor=#FFFFFF;strokeColor=none;" parent="BZBJQn5B5M7l6MrAMs_o-21" vertex="1">
          <mxGeometry x="6" y="4.5" width="247" height="30" as="geometry" />
        </mxCell>
        <mxCell id="Tz6aEU4ManMyac2rpAqn-149" value="" style="rounded=1;whiteSpace=wrap;html=1;fillColor=#1C57CD;strokeColor=none;" parent="1" vertex="1">
          <mxGeometry x="525" y="1329" width="309" height="39" as="geometry" />
        </mxCell>
        <mxCell id="Tz6aEU4ManMyac2rpAqn-151" value="Нотификация участника аукциона" style="text;html=1;align=center;verticalAlign=middle;whiteSpace=wrap;rounded=1;fontSize=13;fontColor=#FFFFFF;strokeColor=none;" parent="1" vertex="1">
          <mxGeometry x="528" y="1333.5" width="218" height="30" as="geometry" />
        </mxCell>
        <mxCell id="MH2jeLUeA2oz_tTjhNLT-337" value="&lt;p style=&quot;margin: 0px 0px 0px 13px; text-indent: -13px; font-variant-numeric: normal; font-variant-east-asian: normal; font-variant-alternates: normal; font-kerning: auto; font-optical-sizing: auto; font-feature-settings: normal; font-variation-settings: normal; font-variant-position: normal; font-stretch: normal; font-size: 14px; line-height: normal; color: rgb(14, 14, 14); text-align: start;&quot; class=&quot;p1&quot;&gt;&lt;font face=&quot;Times New Roman&quot;&gt;Нотификация.Тип&lt;/font&gt;&lt;/p&gt;" style="rounded=1;whiteSpace=wrap;html=1;fillColor=#b1ddf0;strokeColor=#10739e;" vertex="1" parent="1">
          <mxGeometry x="671" y="1450" width="112" height="21" as="geometry" />
        </mxCell>
        <mxCell id="MH2jeLUeA2oz_tTjhNLT-338" value="&lt;p style=&quot;margin: 0px 0px 0px 13px; text-indent: -13px; font-variant-numeric: normal; font-variant-east-asian: normal; font-variant-alternates: normal; font-kerning: auto; font-optical-sizing: auto; font-feature-settings: normal; font-variation-settings: normal; font-variant-position: normal; font-stretch: normal; font-size: 14px; line-height: normal; color: rgb(14, 14, 14); text-align: start;&quot; class=&quot;p1&quot;&gt;&lt;font face=&quot;Times New Roman&quot;&gt;Нотификация.Дата&lt;/font&gt;&lt;/p&gt;" style="rounded=1;whiteSpace=wrap;html=1;fillColor=#b1ddf0;strokeColor=#10739e;" vertex="1" parent="1">
          <mxGeometry x="671" y="1475" width="112" height="21" as="geometry" />
        </mxCell>
        <mxCell id="MH2jeLUeA2oz_tTjhNLT-339" value="" style="rounded=1;whiteSpace=wrap;html=1;" vertex="1" parent="1">
          <mxGeometry x="558" y="247" width="349" height="234" as="geometry" />
        </mxCell>
        <mxCell id="MH2jeLUeA2oz_tTjhNLT-340" value="" style="shape=cylinder3;whiteSpace=wrap;html=1;boundedLbl=1;backgroundOutline=1;size=15;" vertex="1" parent="1">
          <mxGeometry x="696" y="401" width="180" height="70" as="geometry" />
        </mxCell>
        <mxCell id="MH2jeLUeA2oz_tTjhNLT-341" value="Авторизация" style="text;html=1;align=center;verticalAlign=middle;whiteSpace=wrap;rounded=0;" vertex="1" parent="1">
          <mxGeometry x="636" y="254" width="179" height="30" as="geometry" />
        </mxCell>
        <mxCell id="MH2jeLUeA2oz_tTjhNLT-342" value="" style="group" vertex="1" connectable="0" parent="1">
          <mxGeometry x="716" y="390" width="151" height="49" as="geometry" />
        </mxCell>
        <mxCell id="MH2jeLUeA2oz_tTjhNLT-343" value="&lt;p style=&quot;margin: 0px 0px 0px 13px; text-indent: -13px; font-variant-numeric: normal; font-variant-east-asian: normal; font-variant-alternates: normal; font-kerning: auto; font-optical-sizing: auto; font-feature-settings: normal; font-variation-settings: normal; font-variant-position: normal; font-stretch: normal; font-size: 14px; line-height: normal; color: rgb(14, 14, 14); text-align: start;&quot; class=&quot;p1&quot;&gt;&lt;br&gt;&lt;/p&gt;" style="rounded=1;whiteSpace=wrap;html=1;fillColor=#FF77BF;strokeColor=none;arcSize=50;" vertex="1" parent="MH2jeLUeA2oz_tTjhNLT-342">
          <mxGeometry y="9" width="151" height="33" as="geometry" />
        </mxCell>
        <mxCell id="MH2jeLUeA2oz_tTjhNLT-344" value="&lt;font style=&quot;font-size: 18px;&quot;&gt;&lt;i&gt;PostgreSQL&lt;/i&gt;&lt;/font&gt;" style="text;html=1;align=center;verticalAlign=middle;whiteSpace=wrap;rounded=1;shadow=0;fontSize=23;fontStyle=1" vertex="1" parent="MH2jeLUeA2oz_tTjhNLT-342">
          <mxGeometry x="31" width="89" height="49" as="geometry" />
        </mxCell>
        <mxCell id="MH2jeLUeA2oz_tTjhNLT-345" style="edgeStyle=orthogonalEdgeStyle;rounded=0;orthogonalLoop=1;jettySize=auto;html=1;exitX=0.5;exitY=1;exitDx=0;exitDy=0;exitPerimeter=0;" edge="1" parent="1" source="MH2jeLUeA2oz_tTjhNLT-340" target="MH2jeLUeA2oz_tTjhNLT-340">
          <mxGeometry relative="1" as="geometry" />
        </mxCell>
        <mxCell id="cKbgiC5qh_IXnBO1eU4K-46" value="&lt;p style=&quot;margin: 0px 0px 0px 13px; text-indent: -13px; font-variant-numeric: normal; font-variant-east-asian: normal; font-variant-alternates: normal; font-kerning: auto; font-optical-sizing: auto; font-feature-settings: normal; font-variation-settings: normal; font-variant-position: normal; font-stretch: normal; line-height: normal; color: rgb(14, 14, 14); text-align: start;&quot; class=&quot;p1&quot;&gt;&lt;font face=&quot;Times New Roman&quot;&gt;&lt;span style=&quot;font-size: 14px;&quot;&gt;JWT&lt;/span&gt;&lt;/font&gt;&lt;/p&gt;" style="rounded=1;whiteSpace=wrap;html=1;fillColor=#b1ddf0;strokeColor=#10739e;" parent="1" vertex="1">
          <mxGeometry x="714" y="437" width="49" height="21" as="geometry" />
        </mxCell>
        <mxCell id="BZBJQn5B5M7l6MrAMs_o-8" value="" style="group" parent="1" vertex="1" connectable="0">
          <mxGeometry x="572" y="294" width="309" height="39" as="geometry" />
        </mxCell>
        <mxCell id="Tz6aEU4ManMyac2rpAqn-42" value="" style="rounded=1;whiteSpace=wrap;html=1;fillColor=#1C57CD;strokeColor=none;" parent="BZBJQn5B5M7l6MrAMs_o-8" vertex="1">
          <mxGeometry width="309" height="39" as="geometry" />
        </mxCell>
        <mxCell id="Tz6aEU4ManMyac2rpAqn-43" value="" style="sketch=0;outlineConnect=0;fontColor=#232F3E;gradientColor=none;fillColor=default;strokeColor=none;dashed=0;verticalLabelPosition=bottom;verticalAlign=top;align=center;html=1;fontSize=12;fontStyle=0;aspect=fixed;pointerEvents=1;shape=mxgraph.aws4.gear;rounded=1;" parent="BZBJQn5B5M7l6MrAMs_o-8" vertex="1">
          <mxGeometry x="280" y="11" width="17" height="17" as="geometry" />
        </mxCell>
        <mxCell id="Tz6aEU4ManMyac2rpAqn-44" value="Аутентификация" style="text;html=1;align=center;verticalAlign=middle;whiteSpace=wrap;rounded=1;fontSize=13;fontColor=#FFFFFF;strokeColor=none;" parent="BZBJQn5B5M7l6MrAMs_o-8" vertex="1">
          <mxGeometry x="2" y="4.5" width="114" height="30" as="geometry" />
        </mxCell>
        <mxCell id="BZBJQn5B5M7l6MrAMs_o-11" value="" style="group" parent="1" vertex="1" connectable="0">
          <mxGeometry x="573" y="343" width="309" height="39" as="geometry" />
        </mxCell>
        <mxCell id="Tz6aEU4ManMyac2rpAqn-48" value="" style="rounded=1;whiteSpace=wrap;html=1;fillColor=#1C57CD;strokeColor=none;" parent="BZBJQn5B5M7l6MrAMs_o-11" vertex="1">
          <mxGeometry width="309" height="39" as="geometry" />
        </mxCell>
        <mxCell id="Tz6aEU4ManMyac2rpAqn-49" value="" style="sketch=0;outlineConnect=0;fontColor=#232F3E;gradientColor=none;fillColor=default;strokeColor=none;dashed=0;verticalLabelPosition=bottom;verticalAlign=top;align=center;html=1;fontSize=12;fontStyle=0;aspect=fixed;pointerEvents=1;shape=mxgraph.aws4.gear;rounded=1;" parent="BZBJQn5B5M7l6MrAMs_o-11" vertex="1">
          <mxGeometry x="280" y="11" width="17" height="17" as="geometry" />
        </mxCell>
        <mxCell id="Tz6aEU4ManMyac2rpAqn-50" value="Валидация токена безопасности" style="text;html=1;align=center;verticalAlign=middle;whiteSpace=wrap;rounded=1;fontSize=13;fontColor=#FFFFFF;strokeColor=none;" parent="BZBJQn5B5M7l6MrAMs_o-11" vertex="1">
          <mxGeometry x="3" y="4.5" width="209" height="30" as="geometry" />
        </mxCell>
        <mxCell id="MH2jeLUeA2oz_tTjhNLT-81" value="" style="rounded=1;whiteSpace=wrap;html=1;" vertex="1" parent="1">
          <mxGeometry x="2466" y="222" width="349" height="423" as="geometry" />
        </mxCell>
        <mxCell id="MH2jeLUeA2oz_tTjhNLT-82" value="" style="shape=cylinder3;whiteSpace=wrap;html=1;boundedLbl=1;backgroundOutline=1;size=15;" vertex="1" parent="1">
          <mxGeometry x="2617" y="504" width="180" height="126" as="geometry" />
        </mxCell>
        <mxCell id="MH2jeLUeA2oz_tTjhNLT-83" value="Услуга" style="text;html=1;align=center;verticalAlign=middle;whiteSpace=wrap;rounded=0;" vertex="1" parent="1">
          <mxGeometry x="2545" y="231" width="179" height="30" as="geometry" />
        </mxCell>
        <mxCell id="MH2jeLUeA2oz_tTjhNLT-84" value="" style="group" vertex="1" connectable="0" parent="1">
          <mxGeometry x="2637" y="493" width="151" height="49" as="geometry" />
        </mxCell>
        <mxCell id="MH2jeLUeA2oz_tTjhNLT-85" value="&lt;p style=&quot;margin: 0px 0px 0px 13px; text-indent: -13px; font-variant-numeric: normal; font-variant-east-asian: normal; font-variant-alternates: normal; font-kerning: auto; font-optical-sizing: auto; font-feature-settings: normal; font-variation-settings: normal; font-variant-position: normal; font-stretch: normal; font-size: 14px; line-height: normal; color: rgb(14, 14, 14); text-align: start;&quot; class=&quot;p1&quot;&gt;&lt;br&gt;&lt;/p&gt;" style="rounded=1;whiteSpace=wrap;html=1;fillColor=#FF77BF;strokeColor=none;arcSize=50;" vertex="1" parent="MH2jeLUeA2oz_tTjhNLT-84">
          <mxGeometry y="9" width="151" height="33" as="geometry" />
        </mxCell>
        <mxCell id="MH2jeLUeA2oz_tTjhNLT-86" value="&lt;font style=&quot;font-size: 18px;&quot;&gt;&lt;i&gt;PostgreSQL&lt;/i&gt;&lt;/font&gt;" style="text;html=1;align=center;verticalAlign=middle;whiteSpace=wrap;rounded=1;shadow=0;fontSize=23;fontStyle=1" vertex="1" parent="MH2jeLUeA2oz_tTjhNLT-84">
          <mxGeometry x="31" width="89" height="49" as="geometry" />
        </mxCell>
        <mxCell id="MH2jeLUeA2oz_tTjhNLT-89" style="edgeStyle=orthogonalEdgeStyle;rounded=0;orthogonalLoop=1;jettySize=auto;html=1;exitX=0.5;exitY=1;exitDx=0;exitDy=0;exitPerimeter=0;" edge="1" parent="1" source="MH2jeLUeA2oz_tTjhNLT-82" target="MH2jeLUeA2oz_tTjhNLT-82">
          <mxGeometry relative="1" as="geometry" />
        </mxCell>
        <mxCell id="cKbgiC5qh_IXnBO1eU4K-184" value="" style="rounded=1;whiteSpace=wrap;html=1;fillColor=#1C57CD;strokeColor=none;" parent="1" vertex="1">
          <mxGeometry x="2490" y="265" width="309" height="39" as="geometry" />
        </mxCell>
        <mxCell id="cKbgiC5qh_IXnBO1eU4K-186" value="Разместить услугу" style="text;html=1;align=center;verticalAlign=middle;whiteSpace=wrap;rounded=1;fontSize=13;fontColor=#FFFFFF;" parent="1" vertex="1">
          <mxGeometry x="2496" y="269.5" width="132" height="30" as="geometry" />
        </mxCell>
        <mxCell id="BZBJQn5B5M7l6MrAMs_o-12" value="" style="group" parent="1" vertex="1" connectable="0">
          <mxGeometry x="2493" y="360" width="309" height="39" as="geometry" />
        </mxCell>
        <mxCell id="Tz6aEU4ManMyac2rpAqn-66" value="" style="rounded=1;whiteSpace=wrap;html=1;fillColor=#1C57CD;strokeColor=none;" parent="BZBJQn5B5M7l6MrAMs_o-12" vertex="1">
          <mxGeometry width="309" height="39" as="geometry" />
        </mxCell>
        <mxCell id="Tz6aEU4ManMyac2rpAqn-67" value="" style="sketch=0;outlineConnect=0;fontColor=#232F3E;gradientColor=none;fillColor=default;strokeColor=none;dashed=0;verticalLabelPosition=bottom;verticalAlign=top;align=center;html=1;fontSize=12;fontStyle=0;aspect=fixed;pointerEvents=1;shape=mxgraph.aws4.gear;rounded=1;" parent="BZBJQn5B5M7l6MrAMs_o-12" vertex="1">
          <mxGeometry x="282" y="11" width="17" height="17" as="geometry" />
        </mxCell>
        <mxCell id="Tz6aEU4ManMyac2rpAqn-68" value="Удалить услугу пользователя" style="text;html=1;align=center;verticalAlign=middle;whiteSpace=wrap;rounded=1;fontSize=13;fontColor=#FFFFFF;strokeColor=none;" parent="BZBJQn5B5M7l6MrAMs_o-12" vertex="1">
          <mxGeometry x="3" y="4.5" width="189" height="30" as="geometry" />
        </mxCell>
        <mxCell id="BZBJQn5B5M7l6MrAMs_o-24" value="" style="group" parent="1" vertex="1" connectable="0">
          <mxGeometry x="2492" y="312" width="309" height="39" as="geometry" />
        </mxCell>
        <mxCell id="Tz6aEU4ManMyac2rpAqn-57" value="" style="rounded=1;whiteSpace=wrap;html=1;fillColor=#1C57CD;strokeColor=none;" parent="BZBJQn5B5M7l6MrAMs_o-24" vertex="1">
          <mxGeometry width="309" height="39" as="geometry" />
        </mxCell>
        <mxCell id="Tz6aEU4ManMyac2rpAqn-58" value="" style="sketch=0;outlineConnect=0;fontColor=#232F3E;gradientColor=none;fillColor=#FFFFFF;strokeColor=none;dashed=0;verticalLabelPosition=bottom;verticalAlign=top;align=center;html=1;fontSize=12;fontStyle=0;aspect=fixed;pointerEvents=1;shape=mxgraph.aws4.gear;rounded=1;" parent="BZBJQn5B5M7l6MrAMs_o-24" vertex="1">
          <mxGeometry x="286" y="10" width="17" height="17" as="geometry" />
        </mxCell>
        <mxCell id="Tz6aEU4ManMyac2rpAqn-59" value="Добавить услугу в профиль пользователя" style="text;html=1;align=center;verticalAlign=middle;whiteSpace=wrap;rounded=1;fontSize=13;fontColor=#FFFFFF;strokeColor=none;" parent="BZBJQn5B5M7l6MrAMs_o-24" vertex="1">
          <mxGeometry x="2" y="5" width="273" height="30" as="geometry" />
        </mxCell>
        <mxCell id="BZBJQn5B5M7l6MrAMs_o-26" value="" style="group" parent="1" vertex="1" connectable="0">
          <mxGeometry x="2492" y="409" width="309" height="39" as="geometry" />
        </mxCell>
        <mxCell id="Tz6aEU4ManMyac2rpAqn-63" value="" style="rounded=1;whiteSpace=wrap;html=1;fillColor=#1C57CD;strokeColor=none;" parent="BZBJQn5B5M7l6MrAMs_o-26" vertex="1">
          <mxGeometry width="309" height="39" as="geometry" />
        </mxCell>
        <mxCell id="Tz6aEU4ManMyac2rpAqn-64" value="" style="sketch=0;outlineConnect=0;fontColor=#232F3E;gradientColor=none;fillColor=#FFFFFF;strokeColor=none;dashed=0;verticalLabelPosition=bottom;verticalAlign=top;align=center;html=1;fontSize=12;fontStyle=0;aspect=fixed;pointerEvents=1;shape=mxgraph.aws4.gear;rounded=1;" parent="BZBJQn5B5M7l6MrAMs_o-26" vertex="1">
          <mxGeometry x="286" y="11" width="17" height="17" as="geometry" />
        </mxCell>
        <mxCell id="Tz6aEU4ManMyac2rpAqn-65" value="Изменить услугу пользователя" style="text;html=1;align=center;verticalAlign=middle;whiteSpace=wrap;rounded=1;fontSize=13;fontColor=#FFFFFF;strokeColor=none;" parent="BZBJQn5B5M7l6MrAMs_o-26" vertex="1">
          <mxGeometry x="4" y="4.5" width="195" height="30" as="geometry" />
        </mxCell>
        <mxCell id="BZBJQn5B5M7l6MrAMs_o-33" value="" style="group" parent="1" vertex="1" connectable="0">
          <mxGeometry x="2493" y="453" width="309" height="39" as="geometry" />
        </mxCell>
        <mxCell id="cKbgiC5qh_IXnBO1eU4K-4" value="" style="rounded=1;whiteSpace=wrap;html=1;fillColor=#1C57CD;strokeColor=none;" parent="BZBJQn5B5M7l6MrAMs_o-33" vertex="1">
          <mxGeometry width="309" height="39" as="geometry" />
        </mxCell>
        <mxCell id="cKbgiC5qh_IXnBO1eU4K-5" value="" style="sketch=0;outlineConnect=0;fontColor=#232F3E;gradientColor=none;fillColor=#FFFFFF;strokeColor=none;dashed=0;verticalLabelPosition=bottom;verticalAlign=top;align=center;html=1;fontSize=12;fontStyle=0;aspect=fixed;pointerEvents=1;shape=mxgraph.aws4.gear;rounded=1;" parent="BZBJQn5B5M7l6MrAMs_o-33" vertex="1">
          <mxGeometry x="286" y="11" width="17" height="17" as="geometry" />
        </mxCell>
        <mxCell id="cKbgiC5qh_IXnBO1eU4K-6" value="Поиск услуг" style="text;html=1;align=center;verticalAlign=middle;whiteSpace=wrap;rounded=1;fontSize=13;fontColor=#FFFFFF;strokeColor=none;" parent="BZBJQn5B5M7l6MrAMs_o-33" vertex="1">
          <mxGeometry x="4" y="4" width="81" height="30" as="geometry" />
        </mxCell>
        <mxCell id="cKbgiC5qh_IXnBO1eU4K-84" value="&lt;p style=&quot;margin: 0px 0px 0px 13px; text-indent: -13px; font-variant-numeric: normal; font-variant-east-asian: normal; font-variant-alternates: normal; font-kerning: auto; font-optical-sizing: auto; font-feature-settings: normal; font-variation-settings: normal; font-variant-position: normal; font-stretch: normal; font-size: 14px; line-height: normal; color: rgb(14, 14, 14); text-align: start;&quot; class=&quot;p1&quot;&gt;&lt;font face=&quot;Times New Roman&quot;&gt;Услуга.ID&lt;/font&gt;&lt;/p&gt;" style="rounded=1;whiteSpace=wrap;html=1;fillColor=#b1ddf0;strokeColor=#10739e;" parent="1" vertex="1">
          <mxGeometry x="2644" y="543" width="87" height="21" as="geometry" />
        </mxCell>
        <mxCell id="cKbgiC5qh_IXnBO1eU4K-85" value="&lt;p style=&quot;margin: 0px 0px 0px 13px; text-indent: -13px; font-variant-numeric: normal; font-variant-east-asian: normal; font-variant-alternates: normal; font-kerning: auto; font-optical-sizing: auto; font-feature-settings: normal; font-variation-settings: normal; font-variant-position: normal; font-stretch: normal; font-size: 14px; line-height: normal; color: rgb(14, 14, 14); text-align: start;&quot; class=&quot;p1&quot;&gt;&lt;font face=&quot;Times New Roman&quot;&gt;Услуга.Название&lt;/font&gt;&lt;/p&gt;" style="rounded=1;whiteSpace=wrap;html=1;fillColor=#b1ddf0;strokeColor=#10739e;" parent="1" vertex="1">
          <mxGeometry x="2643" y="569" width="110" height="21" as="geometry" />
        </mxCell>
        <mxCell id="cKbgiC5qh_IXnBO1eU4K-86" value="&lt;p style=&quot;margin: 0px 0px 0px 13px; text-indent: -13px; font-variant-numeric: normal; font-variant-east-asian: normal; font-variant-alternates: normal; font-kerning: auto; font-optical-sizing: auto; font-feature-settings: normal; font-variation-settings: normal; font-variant-position: normal; font-stretch: normal; font-size: 14px; line-height: normal; color: rgb(14, 14, 14); text-align: start;&quot; class=&quot;p1&quot;&gt;&lt;font face=&quot;Times New Roman&quot;&gt;Услуга. Описание&lt;/font&gt;&lt;/p&gt;" style="rounded=1;whiteSpace=wrap;html=1;fillColor=#b1ddf0;strokeColor=#10739e;" parent="1" vertex="1">
          <mxGeometry x="2642" y="596" width="112" height="21" as="geometry" />
        </mxCell>
        <mxCell id="MH2jeLUeA2oz_tTjhNLT-368" value="&lt;font style=&quot;font-size: 18px;&quot;&gt;BFF клиентской части&lt;/font&gt;" style="rounded=0;whiteSpace=wrap;html=1;" vertex="1" parent="1">
          <mxGeometry x="1896" y="-93" width="250" height="60" as="geometry" />
        </mxCell>
        <mxCell id="MH2jeLUeA2oz_tTjhNLT-369" value="" style="endArrow=classic;html=1;rounded=0;exitX=0.504;exitY=1.111;exitDx=0;exitDy=0;exitPerimeter=0;fillColor=#ffe6cc;strokeColor=#d79b00;" edge="1" parent="1" source="cKbgiC5qh_IXnBO1eU4K-164" target="MH2jeLUeA2oz_tTjhNLT-368">
          <mxGeometry width="50" height="50" relative="1" as="geometry">
            <mxPoint x="1781" y="48" as="sourcePoint" />
            <mxPoint x="1831" y="-2" as="targetPoint" />
          </mxGeometry>
        </mxCell>
        <mxCell id="MH2jeLUeA2oz_tTjhNLT-370" value="&lt;font style=&quot;font-size: 18px;&quot;&gt;BFF администратора&lt;/font&gt;" style="rounded=0;whiteSpace=wrap;html=1;" vertex="1" parent="1">
          <mxGeometry x="733" y="-46" width="250" height="60" as="geometry" />
        </mxCell>
        <mxCell id="MH2jeLUeA2oz_tTjhNLT-371" value="" style="endArrow=classic;html=1;rounded=0;exitX=0.261;exitY=1.015;exitDx=0;exitDy=0;exitPerimeter=0;" edge="1" parent="1" source="aNh6FEuhw9lsT8rE3H5J-121" target="MH2jeLUeA2oz_tTjhNLT-370">
          <mxGeometry width="50" height="50" relative="1" as="geometry">
            <mxPoint x="1403" y="201" as="sourcePoint" />
            <mxPoint x="1453" y="151" as="targetPoint" />
          </mxGeometry>
        </mxCell>
        <mxCell id="MH2jeLUeA2oz_tTjhNLT-372" value="" style="endArrow=classic;html=1;rounded=0;entryX=0.52;entryY=0.005;entryDx=0;entryDy=0;entryPerimeter=0;exitX=0.333;exitY=1.072;exitDx=0;exitDy=0;exitPerimeter=0;fillColor=#ffe6cc;strokeColor=#d79b00;" edge="1" parent="1" source="MH2jeLUeA2oz_tTjhNLT-368" target="MH2jeLUeA2oz_tTjhNLT-1">
          <mxGeometry width="50" height="50" relative="1" as="geometry">
            <mxPoint x="1567" y="-29" as="sourcePoint" />
            <mxPoint x="1700" y="218" as="targetPoint" />
            <Array as="points">
              <mxPoint x="1978" y="41" />
              <mxPoint x="1201" y="33" />
            </Array>
          </mxGeometry>
        </mxCell>
        <mxCell id="MH2jeLUeA2oz_tTjhNLT-373" value="" style="endArrow=classic;html=1;rounded=0;entryX=0.501;entryY=0.007;entryDx=0;entryDy=0;entryPerimeter=0;exitX=0.233;exitY=1.017;exitDx=0;exitDy=0;exitPerimeter=0;fillColor=#ffe6cc;strokeColor=#d79b00;" edge="1" parent="1" source="MH2jeLUeA2oz_tTjhNLT-368" target="MH2jeLUeA2oz_tTjhNLT-339">
          <mxGeometry width="50" height="50" relative="1" as="geometry">
            <mxPoint x="1514" y="-33" as="sourcePoint" />
            <mxPoint x="1700" y="218" as="targetPoint" />
            <Array as="points">
              <mxPoint x="1956" y="23" />
              <mxPoint x="1011" y="20" />
              <mxPoint x="1011" y="140" />
              <mxPoint x="733" y="137" />
            </Array>
          </mxGeometry>
        </mxCell>
        <mxCell id="MH2jeLUeA2oz_tTjhNLT-374" value="" style="endArrow=classic;html=1;rounded=0;exitX=0.455;exitY=0.933;exitDx=0;exitDy=0;exitPerimeter=0;entryX=0.531;entryY=-0.001;entryDx=0;entryDy=0;entryPerimeter=0;fillColor=#ffe6cc;strokeColor=#d79b00;" edge="1" parent="1" source="MH2jeLUeA2oz_tTjhNLT-368" target="MH2jeLUeA2oz_tTjhNLT-81">
          <mxGeometry width="50" height="50" relative="1" as="geometry">
            <mxPoint x="2205" y="284" as="sourcePoint" />
            <mxPoint x="2255" y="234" as="targetPoint" />
            <Array as="points">
              <mxPoint x="2012" y="19" />
              <mxPoint x="2651" y="19" />
            </Array>
          </mxGeometry>
        </mxCell>
        <mxCell id="MH2jeLUeA2oz_tTjhNLT-375" value="" style="endArrow=classic;html=1;rounded=0;exitX=0.473;exitY=0.96;exitDx=0;exitDy=0;exitPerimeter=0;entryX=0.412;entryY=0.002;entryDx=0;entryDy=0;entryPerimeter=0;fillColor=#d5e8d4;strokeColor=#82b366;" edge="1" parent="1" source="MH2jeLUeA2oz_tTjhNLT-370" target="MH2jeLUeA2oz_tTjhNLT-81">
          <mxGeometry width="50" height="50" relative="1" as="geometry">
            <mxPoint x="1901" y="289" as="sourcePoint" />
            <mxPoint x="1951" y="239" as="targetPoint" />
            <Array as="points">
              <mxPoint x="851" y="76" />
              <mxPoint x="2610" y="76" />
            </Array>
          </mxGeometry>
        </mxCell>
        <mxCell id="MH2jeLUeA2oz_tTjhNLT-376" value="" style="endArrow=classic;html=1;rounded=0;exitX=0.107;exitY=1.039;exitDx=0;exitDy=0;exitPerimeter=0;fillColor=#d5e8d4;strokeColor=#82b366;" edge="1" parent="1" source="MH2jeLUeA2oz_tTjhNLT-370">
          <mxGeometry width="50" height="50" relative="1" as="geometry">
            <mxPoint x="1125" y="490" as="sourcePoint" />
            <mxPoint x="665" y="246" as="targetPoint" />
            <Array as="points">
              <mxPoint x="760" y="108" />
              <mxPoint x="665" y="108" />
            </Array>
          </mxGeometry>
        </mxCell>
        <mxCell id="MH2jeLUeA2oz_tTjhNLT-377" value="Портал оператора поддержки" style="text;html=1;align=center;verticalAlign=middle;whiteSpace=wrap;rounded=1;shadow=0;fontSize=23;fontStyle=1" vertex="1" parent="1">
          <mxGeometry x="89" y="-151" width="348" height="49" as="geometry" />
        </mxCell>
        <mxCell id="MH2jeLUeA2oz_tTjhNLT-379" value="" style="group" vertex="1" connectable="0" parent="1">
          <mxGeometry x="214" y="-193" width="151" height="36" as="geometry" />
        </mxCell>
        <mxCell id="MH2jeLUeA2oz_tTjhNLT-380" value="&lt;p style=&quot;margin: 0px 0px 0px 13px; text-indent: -13px; font-variant-numeric: normal; font-variant-east-asian: normal; font-variant-alternates: normal; font-kerning: auto; font-optical-sizing: auto; font-feature-settings: normal; font-variation-settings: normal; font-variant-position: normal; font-stretch: normal; font-size: 14px; line-height: normal; color: rgb(14, 14, 14); text-align: start;&quot; class=&quot;p1&quot;&gt;&lt;br&gt;&lt;/p&gt;" style="rounded=1;whiteSpace=wrap;html=1;fillColor=#FF77BF;strokeColor=none;arcSize=33;" vertex="1" parent="MH2jeLUeA2oz_tTjhNLT-379">
          <mxGeometry y="5" width="151" height="31" as="geometry" />
        </mxCell>
        <mxCell id="MH2jeLUeA2oz_tTjhNLT-381" value="&lt;font style=&quot;font-size: 18px;&quot;&gt;&lt;i&gt;Django/Python&lt;/i&gt;&lt;/font&gt;" style="text;html=1;align=center;verticalAlign=middle;whiteSpace=wrap;rounded=1;shadow=0;fontSize=23;fontStyle=1" vertex="1" parent="MH2jeLUeA2oz_tTjhNLT-379">
          <mxGeometry x="30" width="89" height="36" as="geometry" />
        </mxCell>
        <mxCell id="MH2jeLUeA2oz_tTjhNLT-382" value="&lt;font style=&quot;font-size: 18px;&quot;&gt;BFF техподдержки&lt;/font&gt;" style="rounded=0;whiteSpace=wrap;html=1;" vertex="1" parent="1">
          <mxGeometry x="144" y="-52" width="250" height="60" as="geometry" />
        </mxCell>
        <mxCell id="MH2jeLUeA2oz_tTjhNLT-383" value="" style="endArrow=classic;html=1;rounded=0;exitX=0.519;exitY=0.967;exitDx=0;exitDy=0;exitPerimeter=0;entryX=0.524;entryY=0.04;entryDx=0;entryDy=0;entryPerimeter=0;" edge="1" parent="1" source="MH2jeLUeA2oz_tTjhNLT-377" target="MH2jeLUeA2oz_tTjhNLT-382">
          <mxGeometry width="50" height="50" relative="1" as="geometry">
            <mxPoint x="1092" y="-94" as="sourcePoint" />
            <mxPoint x="1142" y="-144" as="targetPoint" />
          </mxGeometry>
        </mxCell>
        <mxCell id="MH2jeLUeA2oz_tTjhNLT-386" value="" style="endArrow=classic;html=1;rounded=0;exitX=0.5;exitY=1.038;exitDx=0;exitDy=0;exitPerimeter=0;entryX=0.199;entryY=0.001;entryDx=0;entryDy=0;entryPerimeter=0;fillColor=#dae8fc;strokeColor=#6c8ebf;" edge="1" parent="1" source="MH2jeLUeA2oz_tTjhNLT-382" target="MH2jeLUeA2oz_tTjhNLT-339">
          <mxGeometry width="50" height="50" relative="1" as="geometry">
            <mxPoint x="1092" y="-94" as="sourcePoint" />
            <mxPoint x="1142" y="-144" as="targetPoint" />
            <Array as="points">
              <mxPoint x="269" y="116" />
              <mxPoint x="631" y="116" />
            </Array>
          </mxGeometry>
        </mxCell>
        <mxCell id="MH2jeLUeA2oz_tTjhNLT-389" value="" style="endArrow=classic;html=1;rounded=0;exitX=0.229;exitY=0.964;exitDx=0;exitDy=0;exitPerimeter=0;entryX=0.13;entryY=-0.023;entryDx=0;entryDy=0;entryPerimeter=0;fillColor=#dae8fc;strokeColor=#6c8ebf;" edge="1" parent="1" source="MH2jeLUeA2oz_tTjhNLT-382" target="MH2jeLUeA2oz_tTjhNLT-129">
          <mxGeometry width="50" height="50" relative="1" as="geometry">
            <mxPoint x="1092" y="368" as="sourcePoint" />
            <mxPoint x="1142" y="318" as="targetPoint" />
          </mxGeometry>
        </mxCell>
        <mxCell id="MH2jeLUeA2oz_tTjhNLT-390" value="" style="endArrow=classic;html=1;rounded=0;exitX=0.78;exitY=0.933;exitDx=0;exitDy=0;exitPerimeter=0;entryX=0.195;entryY=0.008;entryDx=0;entryDy=0;entryPerimeter=0;fillColor=#d5e8d4;strokeColor=#82b366;" edge="1" parent="1" source="MH2jeLUeA2oz_tTjhNLT-370" target="MH2jeLUeA2oz_tTjhNLT-155">
          <mxGeometry width="50" height="50" relative="1" as="geometry">
            <mxPoint x="1299" y="549" as="sourcePoint" />
            <mxPoint x="1349" y="499" as="targetPoint" />
            <Array as="points">
              <mxPoint x="928" y="906" />
              <mxPoint x="1076" y="906" />
            </Array>
          </mxGeometry>
        </mxCell>
        <mxCell id="MH2jeLUeA2oz_tTjhNLT-391" value="" style="endArrow=classic;html=1;rounded=0;exitX=0.927;exitY=1.011;exitDx=0;exitDy=0;exitPerimeter=0;entryX=0.071;entryY=-0.078;entryDx=0;entryDy=0;entryPerimeter=0;fillColor=#d5e8d4;strokeColor=#82b366;" edge="1" parent="1" source="MH2jeLUeA2oz_tTjhNLT-370" target="MH2jeLUeA2oz_tTjhNLT-224">
          <mxGeometry width="50" height="50" relative="1" as="geometry">
            <mxPoint x="1595" y="475" as="sourcePoint" />
            <mxPoint x="1645" y="425" as="targetPoint" />
            <Array as="points">
              <mxPoint x="965" y="175" />
              <mxPoint x="1475" y="175" />
            </Array>
          </mxGeometry>
        </mxCell>
        <mxCell id="MH2jeLUeA2oz_tTjhNLT-393" value="" style="endArrow=classic;html=1;rounded=0;exitX=0.252;exitY=1.017;exitDx=0;exitDy=0;exitPerimeter=0;entryX=0.215;entryY=-0.001;entryDx=0;entryDy=0;entryPerimeter=0;fillColor=#d5e8d4;strokeColor=#82b366;" edge="1" parent="1" source="MH2jeLUeA2oz_tTjhNLT-370" target="MH2jeLUeA2oz_tTjhNLT-1">
          <mxGeometry width="50" height="50" relative="1" as="geometry">
            <mxPoint x="1595" y="475" as="sourcePoint" />
            <mxPoint x="1645" y="425" as="targetPoint" />
            <Array as="points">
              <mxPoint x="796" y="196" />
              <mxPoint x="1096" y="196" />
            </Array>
          </mxGeometry>
        </mxCell>
        <mxCell id="MH2jeLUeA2oz_tTjhNLT-394" value="" style="endArrow=classic;html=1;rounded=0;exitX=0.889;exitY=1.029;exitDx=0;exitDy=0;exitPerimeter=0;entryX=0.464;entryY=0;entryDx=0;entryDy=0;entryPerimeter=0;fillColor=#ffe6cc;strokeColor=#d79b00;" edge="1" parent="1" source="MH2jeLUeA2oz_tTjhNLT-368" target="MH2jeLUeA2oz_tTjhNLT-7">
          <mxGeometry width="50" height="50" relative="1" as="geometry">
            <mxPoint x="1888" y="9" as="sourcePoint" />
            <mxPoint x="1938" y="-41" as="targetPoint" />
            <Array as="points">
              <mxPoint x="2118" y="143" />
              <mxPoint x="2267" y="143" />
            </Array>
          </mxGeometry>
        </mxCell>
        <mxCell id="MH2jeLUeA2oz_tTjhNLT-396" value="" style="endArrow=classic;html=1;rounded=0;exitX=0.478;exitY=1.001;exitDx=0;exitDy=0;exitPerimeter=0;entryX=0.438;entryY=-0.086;entryDx=0;entryDy=0;entryPerimeter=0;" edge="1" parent="1" source="MH2jeLUeA2oz_tTjhNLT-127" target="MH2jeLUeA2oz_tTjhNLT-312">
          <mxGeometry width="50" height="50" relative="1" as="geometry">
            <mxPoint x="1396" y="298" as="sourcePoint" />
            <mxPoint x="265" y="925" as="targetPoint" />
            <Array as="points">
              <mxPoint x="265" y="937" />
              <mxPoint x="668" y="937" />
            </Array>
          </mxGeometry>
        </mxCell>
        <mxCell id="MH2jeLUeA2oz_tTjhNLT-397" value="" style="rounded=1;whiteSpace=wrap;html=1;" vertex="1" parent="1">
          <mxGeometry x="343" y="991" width="2205" height="60" as="geometry" />
        </mxCell>
        <mxCell id="MH2jeLUeA2oz_tTjhNLT-398" value="&lt;font style=&quot;font-size: 26px;&quot;&gt;Kafka&lt;/font&gt;" style="text;html=1;align=center;verticalAlign=middle;whiteSpace=wrap;rounded=0;" vertex="1" parent="1">
          <mxGeometry x="1043" y="1011" width="60" height="30" as="geometry" />
        </mxCell>
        <mxCell id="MH2jeLUeA2oz_tTjhNLT-401" value="" style="endArrow=classic;html=1;rounded=0;exitX=0.612;exitY=1;exitDx=0;exitDy=0;exitPerimeter=0;entryX=0.231;entryY=0.002;entryDx=0;entryDy=0;entryPerimeter=0;fillColor=#d5e8d4;strokeColor=#82b366;" edge="1" parent="1" source="MH2jeLUeA2oz_tTjhNLT-370" target="MH2jeLUeA2oz_tTjhNLT-7">
          <mxGeometry width="50" height="50" relative="1" as="geometry">
            <mxPoint x="2095" y="441" as="sourcePoint" />
            <mxPoint x="2145" y="391" as="targetPoint" />
            <Array as="points">
              <mxPoint x="886" y="112" />
              <mxPoint x="2100" y="112" />
              <mxPoint x="2100" y="186" />
              <mxPoint x="2186" y="186" />
            </Array>
          </mxGeometry>
        </mxCell>
        <mxCell id="MH2jeLUeA2oz_tTjhNLT-402" value="" style="endArrow=classic;html=1;rounded=0;exitX=0.66;exitY=1;exitDx=0;exitDy=0;exitPerimeter=0;entryX=0.493;entryY=0.006;entryDx=0;entryDy=0;entryPerimeter=0;fillColor=#ffe6cc;strokeColor=#d79b00;" edge="1" parent="1" source="MH2jeLUeA2oz_tTjhNLT-368" target="MH2jeLUeA2oz_tTjhNLT-39">
          <mxGeometry width="50" height="50" relative="1" as="geometry">
            <mxPoint x="2095" y="441" as="sourcePoint" />
            <mxPoint x="2145" y="391" as="targetPoint" />
            <Array as="points">
              <mxPoint x="2061" y="149" />
              <mxPoint x="1917" y="149" />
            </Array>
          </mxGeometry>
        </mxCell>
        <mxCell id="MH2jeLUeA2oz_tTjhNLT-403" value="" style="endArrow=classic;html=1;rounded=0;exitX=0.34;exitY=1;exitDx=0;exitDy=0;exitPerimeter=0;entryX=0.235;entryY=0.001;entryDx=0;entryDy=0;entryPerimeter=0;fillColor=#d5e8d4;strokeColor=#82b366;" edge="1" parent="1" source="MH2jeLUeA2oz_tTjhNLT-370" target="MH2jeLUeA2oz_tTjhNLT-39">
          <mxGeometry width="50" height="50" relative="1" as="geometry">
            <mxPoint x="2095" y="441" as="sourcePoint" />
            <mxPoint x="2145" y="391" as="targetPoint" />
            <Array as="points">
              <mxPoint x="818" y="159" />
              <mxPoint x="1827" y="164" />
            </Array>
          </mxGeometry>
        </mxCell>
        <mxCell id="MH2jeLUeA2oz_tTjhNLT-404" value="" style="shape=cylinder3;whiteSpace=wrap;html=1;boundedLbl=1;backgroundOutline=1;size=15;" vertex="1" parent="1">
          <mxGeometry x="1164" y="1443" width="180" height="126" as="geometry" />
        </mxCell>
        <mxCell id="MH2jeLUeA2oz_tTjhNLT-405" value="" style="group" vertex="1" connectable="0" parent="1">
          <mxGeometry x="1184" y="1432" width="151" height="49" as="geometry" />
        </mxCell>
        <mxCell id="MH2jeLUeA2oz_tTjhNLT-406" value="&lt;p style=&quot;margin: 0px 0px 0px 13px; text-indent: -13px; font-variant-numeric: normal; font-variant-east-asian: normal; font-variant-alternates: normal; font-kerning: auto; font-optical-sizing: auto; font-feature-settings: normal; font-variation-settings: normal; font-variant-position: normal; font-stretch: normal; font-size: 14px; line-height: normal; color: rgb(14, 14, 14); text-align: start;&quot; class=&quot;p1&quot;&gt;&lt;br&gt;&lt;/p&gt;" style="rounded=1;whiteSpace=wrap;html=1;fillColor=#FF77BF;strokeColor=none;arcSize=50;" vertex="1" parent="MH2jeLUeA2oz_tTjhNLT-405">
          <mxGeometry y="9" width="151" height="33" as="geometry" />
        </mxCell>
        <mxCell id="MH2jeLUeA2oz_tTjhNLT-407" value="&lt;font style=&quot;font-size: 18px;&quot;&gt;&lt;i&gt;PostgreSQL&lt;/i&gt;&lt;/font&gt;" style="text;html=1;align=center;verticalAlign=middle;whiteSpace=wrap;rounded=1;shadow=0;fontSize=23;fontStyle=1" vertex="1" parent="MH2jeLUeA2oz_tTjhNLT-405">
          <mxGeometry x="31" width="89" height="49" as="geometry" />
        </mxCell>
        <mxCell id="MH2jeLUeA2oz_tTjhNLT-408" style="edgeStyle=orthogonalEdgeStyle;rounded=0;orthogonalLoop=1;jettySize=auto;html=1;exitX=0.5;exitY=1;exitDx=0;exitDy=0;exitPerimeter=0;" edge="1" parent="1" source="MH2jeLUeA2oz_tTjhNLT-404" target="MH2jeLUeA2oz_tTjhNLT-404">
          <mxGeometry relative="1" as="geometry" />
        </mxCell>
        <mxCell id="MH2jeLUeA2oz_tTjhNLT-409" value="&lt;p style=&quot;margin: 0px 0px 0px 13px; text-indent: -13px; font-variant-numeric: normal; font-variant-east-asian: normal; font-variant-alternates: normal; font-kerning: auto; font-optical-sizing: auto; font-feature-settings: normal; font-variation-settings: normal; font-variant-position: normal; font-stretch: normal; font-size: 14px; line-height: normal; color: rgb(14, 14, 14); text-align: start;&quot; class=&quot;p1&quot;&gt;&lt;font face=&quot;Times New Roman&quot;&gt;Отчёт.ID&lt;/font&gt;&lt;/p&gt;" style="rounded=1;whiteSpace=wrap;html=1;fillColor=#b1ddf0;strokeColor=#10739e;" vertex="1" parent="1">
          <mxGeometry x="1186" y="1484" width="112" height="21" as="geometry" />
        </mxCell>
        <mxCell id="MH2jeLUeA2oz_tTjhNLT-410" value="&lt;p style=&quot;margin: 0px 0px 0px 13px; text-indent: -13px; font-variant-numeric: normal; font-variant-east-asian: normal; font-variant-alternates: normal; font-kerning: auto; font-optical-sizing: auto; font-feature-settings: normal; font-variation-settings: normal; font-variant-position: normal; font-stretch: normal; font-size: 14px; line-height: normal; color: rgb(14, 14, 14); text-align: start;&quot; class=&quot;p1&quot;&gt;&lt;font face=&quot;Times New Roman&quot;&gt;Отчёт.Тип&lt;/font&gt;&lt;/p&gt;" style="rounded=1;whiteSpace=wrap;html=1;fillColor=#b1ddf0;strokeColor=#10739e;" vertex="1" parent="1">
          <mxGeometry x="1186" y="1509" width="112" height="21" as="geometry" />
        </mxCell>
        <mxCell id="MH2jeLUeA2oz_tTjhNLT-411" value="&lt;p style=&quot;margin: 0px 0px 0px 13px; text-indent: -13px; font-variant-numeric: normal; font-variant-east-asian: normal; font-variant-alternates: normal; font-kerning: auto; font-optical-sizing: auto; font-feature-settings: normal; font-variation-settings: normal; font-variant-position: normal; font-stretch: normal; font-size: 14px; line-height: normal; color: rgb(14, 14, 14); text-align: start;&quot; class=&quot;p1&quot;&gt;&lt;font face=&quot;Times New Roman&quot;&gt;Отчёт.Дата&lt;/font&gt;&lt;/p&gt;" style="rounded=1;whiteSpace=wrap;html=1;fillColor=#b1ddf0;strokeColor=#10739e;" vertex="1" parent="1">
          <mxGeometry x="1186" y="1534" width="112" height="21" as="geometry" />
        </mxCell>
      </root>
    </mxGraphModel>
  </diagram>
</mxfile>
